<svg xmlns="http://www.w3.org/2000/svg" viewBox="0 0 24 24"><path d="M6.5 24C2.916 24 0 21.084 0 17.5v-11C0 2.916 2.916 0 6.5 0h11C21.084 0 24 2.916 24 6.5v11c0 3.584-2.916 6.5-6.5 6.5h-11zm0-23C3.467 1 1 3.467 1 6.5v11C1 20.533 3.467 23 6.5 23h11c3.033 0 5.5-2.467 5.5-5.5v-11C23 3.467 20.533 1 17.5 1h-11z"/><path d="M12 18.5c-3.584 0-6.5-2.916-6.5-6.5S8.416 5.5 12 5.5s6.5 2.916 6.5 6.5-2.916 6.5-6.5 6.5zm0-12c-3.033 0-5.5 2.467-5.5 5.5s2.467 5.5 5.5 5.5 5.5-2.467 5.5-5.5-2.467-5.5-5.5-5.5zM19 7c-1.103 0-2-.897-2-2s.897-2 2-2 2 .897 2 2-.897 2-2 2zm0-3c-.552 0-1 .449-1 1s.448 1 1 1 1-.449 1-1-.448-1-1-1z"/></svg>
