<svg xmlns="http://www.w3.org/2000/svg" viewBox="0 0 200 200" height="200mm" width="200mm"><g transform="translate(0 -97)"><flowRoot style="line-height:125%" xml:space="preserve" font-style="normal" font-weight="400" font-size="40" font-family="sans-serif" letter-spacing="0" word-spacing="0" fill="#000" fill-opacity="1" stroke="none" stroke-width="1" stroke-linecap="butt" stroke-linejoin="miter" stroke-opacity="1"><flowRegion><path d="M-765.714-746.952H-720v85.714h-45.714z"/></flowRegion><flowPara/></flowRoot><flowRoot style="line-height:125%" xml:space="preserve" font-style="normal" font-weight="400" font-size="40" font-family="sans-serif" letter-spacing="0" word-spacing="0" fill="#000" fill-opacity="1" stroke="none" stroke-width="1" stroke-linecap="butt" stroke-linejoin="miter" stroke-opacity="1"><flowRegion><path d="M645.235-1577.547h905.981v1047.402H645.235z"/></flowRegion><flowPara/></flowRoot><flowRoot style="line-height:125%" xml:space="preserve" font-style="normal" font-weight="400" font-size="40" font-family="sans-serif" letter-spacing="0" word-spacing="0" fill="#000" fill-opacity="1" stroke="none" stroke-width="1" stroke-linecap="butt" stroke-linejoin="miter" stroke-opacity="1"><flowRegion><path d="M-174.479-1256.179h41.902v41.302h-41.902z"/></flowRegion><flowPara/></flowRoot><flowRoot transform="matrix(.26458 0 0 .26458 0 97)" style="line-height:125%" xml:space="preserve" font-style="normal" font-weight="400" font-size="40" font-family="sans-serif" letter-spacing="0" word-spacing="0" fill="#000" fill-opacity="1" stroke="none" stroke-width="1" stroke-linecap="butt" stroke-linejoin="miter" stroke-opacity="1"><flowRegion><path d="M-251.907-207.527h53.033v48.614h-53.033z"/></flowRegion><flowPara/></flowRoot><flowRoot style="line-height:125%" xml:space="preserve" font-style="normal" font-weight="400" font-size="40" font-family="sans-serif" letter-spacing="0" word-spacing="0" fill="#000" fill-opacity="1" stroke="none" stroke-width="1" stroke-linecap="butt" stroke-linejoin="miter" stroke-opacity="1"><flowRegion><path d="M1003.125-1001.907h232.813v42.188h-232.813z"/></flowRegion><flowPara/></flowRoot><flowRoot style="line-height:125%" xml:space="preserve" font-style="normal" font-weight="400" font-size="40" font-family="sans-serif" letter-spacing="0" word-spacing="0" fill="#000" fill-opacity="1" stroke="none" stroke-width="1" stroke-linecap="butt" stroke-linejoin="miter" stroke-opacity="1"><flowRegion><path d="M-87.5-97.219h921.875v1153.125H-87.5z"/></flowRegion><flowPara/></flowRoot><path d="M91.668 290.272c-5.07-.477-10.786-1.483-15.445-2.719-1.682-.446-2.242-.687-2.15-.927.068-.178.016-.324-.117-.324-.132 0-.28.117-.327.26-.123.367-2.07-.24-2.07-.646 0-.171-.264-.377-.587-.459-.324-.08-.588-.306-.588-.5 0-.215.136-.3.35-.217 2.098.804 8.696 2.49 12.467 3.184 1.423.262 2.905.539 3.293.615.388.076 2.346.287 4.351.47 5.07.462 5.98.55 6.115.599a.805.805 0 0 0 .331.002c.118-.022.83-.043 1.585-.047 1.04-.005 1.522.112 1.994.483l.622.49-3.854-.032c-2.12-.018-4.806-.122-5.97-.231zm-16.58-3.604c0-.057-.106-.169-.236-.249-.129-.08-.235-.033-.235.104s.106.249.235.249c.13 0 .236-.047.236-.104zm26.493 3.436c-.427-.473-.422-.482.354-.601 1.544-.238 5.843-.325 5.843-.119 0 .116.265.21.588.21.37 0 .588.133.588.359 0 .259-.245.356-.882.35-.485-.005-2.046.056-3.47.135-2.405.135-2.618.111-3.02-.334zm7.729-.451c.043-.226.087-.464.097-.53.01-.064.5-.135 1.09-.158.772-.03 1.11.059 1.21.318.191.497-.341.774-1.497.778-.807.003-.965-.069-.9-.408zm3.068-.038c-.106-.17.049-.958.188-.963 1.073-.04 10.065-1.864 11.01-2.233.26-.102.48.007.647.32.36.67.327.739-.35.739-.332 0-.808.109-1.057.242-.476.255-6.104 1.476-8.066 1.75-.917.13-1.104.099-.95-.152.119-.192-.049-.154-.437.1-.723.473-.805.49-.985.197zm12.241-2.745c-.231-.603-.167-.804.257-.804.296 0 .331.07.136.264-.145.145-.208.41-.14.588.07.179.072.324.008.324-.065 0-.182-.167-.26-.372zm3.27-1.035c-.428-.474-.706-.33 3.582-1.863 1.773-.634 1.958-.66 2.168-.299.134.23.234.271.238.1.01-.422.712-.364.712.06 0 .193-.19.352-.423.352-.233 0-.524.092-.647.205-.123.112-1.07.491-2.105.841-3.22 1.091-3.102 1.07-3.524.604zm-57.152-.003c-.08-.13-.034-.235.103-.235s.25.105.25.235-.047.235-.104.235c-.057 0-.17-.106-.25-.235zm-2.587-.837c-.777-.287-1.994-.732-2.705-.99-3.1-1.127-5.532-2.348-5.873-2.947-.191-.335-.293-.662-.228-.728.225-.224 7.024 2.79 7.033 3.119.006.206.18.276.489.195.464-.121 3.282.76 3.282 1.026 0 .072-.132.292-.293.488-.261.316-.454.298-1.705-.163zm-2.587-1.515c-.08-.13-.252-.235-.381-.235-.13 0-.17.106-.09.235.08.13.251.235.38.235.13 0 .17-.106.09-.235zm34.632.1c-.043-.044-.906-.1-1.915-.123-1.566-.036-1.924-.123-2.431-.593-.327-.303-.702-.485-.832-.404-.136.083.003.34.323.6.561.454.56.454-1.79.305-5.368-.339-15.467-2.171-17.757-3.222-.323-.149-.694-.282-.823-.296-1.25-.138-7.078-2.243-10.19-3.68-1.767-.817-1.944-.957-1.81-1.44.144-.526.14-.527-.224-.071-.365.456-.42.44-2.825-.823-3.118-1.64-3.19-1.695-3.248-2.5-.026-.369-.167-.777-.313-.906-.146-.13-.334-.526-.416-.882-.083-.356-.254-.647-.381-.647-.344 0-.28.532.135 1.124.201.287.31.523.241.523s-.024.264.099.588c.122.323.146.581.053.574-.094-.008-1.124-.625-2.288-1.373l-2.116-1.36.062-.972c.05-.788-.006-.947-.294-.836-.196.075-.356.02-.356-.124 0-.143-.233-.26-.518-.26-.402 0-.454.062-.235.282.155.155.282.48.282.72 0 .369-.219.285-1.366-.52-4.078-2.86-10.505-8.624-13.951-12.511l-1.47-1.658.782-.682c1.18-1.031 1.658-.906 3.228.847 3.143 3.507 8.88 8.74 11.686 10.657a31.24 31.24 0 0 1 2.133 1.61c.509.431 1.008.784 1.11.784.102 0 1.01.54 2.016 1.198 1.006.659 2.967 1.836 4.358 2.616 1.39.78 2.528 1.508 2.528 1.618 0 .109.159.137.353.063.194-.075.353-.019.353.125 0 .143.185.264.411.27.226.005.782.217 1.235.47l.823.46-.916-.058c-.567-.037-.955.053-1.02.235-.06.172.094.294.37.294.26 0 .695.281.965.624.474.604.489.607.428.093-.111-.95.576-1.117 1.98-.483 1.3.587 1.988 1.035 1.382.9a.355.355 0 0 0-.417.277c-.055.25.13.36.633.378.39.014.71-.054.71-.151 0-.255 1.447.117 3.901 1.002 1.372.495 2.102.875 2.039 1.064-.055.162.088.294.317.294s.654.224.946.498l.529.497-.13-.497c-.106-.406-.028-.494.426-.48.307.01.98.147 1.498.304.723.22.926.393.877.747-.05.364.085.465.647.485.39.014.71-.066.71-.176 0-.307.822-.246 3.528.263 1.358.255 3.733.627 5.278.827 1.887.244 2.951.492 3.244.757.326.296.403.31.305.055-.111-.292.882-.34 6.987-.346 7.619-.006 10.534-.259 16.34-1.419 1.581-.316 2.929-.574 2.994-.574.066 0 0 .265-.149.589-.33.724-.25.814.573.656.46-.088.648-.268.654-.626.009-.6.772-1.2 1.818-1.43.673-.148.761-.109.761.336 0 .276-.106.437-.235.357-.13-.08-.235.08-.235.355 0 .409-.095.47-.518.336-.48-.152-.49-.136-.135.22.211.21.56.383.773.383.595 0 .273.577-.374.67-.313.046-.628.177-.7.292-.184.297-3.369 1.08-6.56 1.614-2.744.46-3.356.54-7.185.944-2.262.239-7.568.475-7.7.343zm-6.057-1.982a.236.236 0 0 0-.236-.235.236.236 0 0 0-.235.235c0 .13.106.236.235.236.13 0 .236-.106.236-.236zm-19.062-3.057c-.003-.271-.081-.25-.341.093-.186.246-.275.548-.198.672.168.272.545-.263.54-.765zm-.694-.353c0-.194-.1-.353-.221-.353-.297 0-.51.368-.321.556.264.264.542.16.542-.203zm-12.23-4.233c0-.194-.041-.353-.092-.353-.05 0-.153.159-.228.353-.074.194-.033.353.093.353.125 0 .227-.16.227-.353zm-6.585-3.514c0-.057-.106-.17-.235-.25-.13-.079-.235-.032-.235.105s.106.249.235.249c.13 0 .235-.047.235-.104zm79.721 13.07c.365-.254.328-.284-.657-.547-.17-.046.57-.44 1.647-.877 7.958-3.227 17.261-9.04 24.525-15.323 2.57-2.222 7.972-7.7 10.593-10.739 1.614-1.871 2.046-2.152 2.187-1.423.188.969-8.15 9.835-13.169 14.002-6.743 5.6-15.024 10.81-21.789 13.708-1.033.443-1.291.481-1.456.216-.164-.267-.276-.253-.643.08-.245.22-.569.402-.72.402-.152 0-.25.119-.217.264.032.146-.1.312-.294.37-.308.093-.31.077-.007-.134zm-76.691-2.56a1.375 1.375 0 0 1-.003-.344c.014-.092-.128-.109-.315-.037-.44.168-4.562-2.001-4.86-2.558-.125-.234-.334-.36-.463-.28-.13.081-1.077-.366-2.105-.992-1.374-.836-1.87-1.268-1.87-1.628 0-.27.064-.554.141-.631.078-.078.845.307 1.705.854 1.989 1.264 4.914 2.937 6.774 3.872 1.229.618 1.44.817 1.41 1.324-.03.537-.346.856-.414.42zm66.277-1.15c.196-.08.117-.418-.264-1.134-.298-.562-.476-1.128-.395-1.26.08-.13 1.31-.624 2.732-1.096 1.422-.473 2.718-.914 2.88-.98.185-.077.245.007.16.227-.073.191-.02.418.118.504.138.085.251.037.251-.108s.123-.187.274-.094c.185.114.06.353-.38.732-.628.54-.637.577-.216.895.64.484.9.306.983-.67.044-.52.196-.863.382-.863.175 0 .31-.26.31-.598 0-.329.04-.63.088-.668.048-.038 2.257-1.135 4.91-2.438 13.458-6.612 23.895-15.588 32.61-28.046 1.04-1.488 2.175-3.195 2.52-3.794.475-.821.808-1.124 1.358-1.234.979-.196 2.552-.186 2.552.017 0 .218-1.676 3.038-3.194 5.375-8.258 12.716-20.851 23.73-34.789 30.425-4.464 2.145-5.516 2.535-5.763 2.134-.173-.28-.236-.264-.373.091-.09.236-.651.64-1.247.897-1.38.598-5.156 1.843-5.514 1.819-.2-.014-.198-.05.007-.133zm7.823-3.716c.23-.278.194-.333-.206-.303-.269.02-.489.173-.489.34 0 .402.345.384.695-.037zm16.752-9.355c-.17-.17-.22-.11-.162.197.127.676.147.702.282.363a.566.566 0 0 0-.12-.56zm1.368-.17c0-.121-.106-.286-.235-.366-.13-.08-.235.02-.235.221 0 .202.106.367.235.367.13 0 .235-.1.235-.222zm-1.881-.719c0-.13-.1-.235-.222-.235-.121 0-.286.106-.366.235-.08.13.02.235.221.235.202 0 .367-.106.367-.235zm-25.359 13.013c.115-.59.664-.67.664-.097 0 .288-.152.49-.37.49-.219 0-.339-.16-.294-.393zm-76.133-4.485c-.089-.29-.253-.47-.364-.401-.37.228-8.197-5.62-8.202-6.128 0-.13.094-.387.212-.573.177-.28.35-.228.996.296 1.427 1.156 7.168 5.5 7.559 5.718.303.17.34.362.172.915-.2.666-.219.674-.373.173zm-13.616-11.177c-5.054-5.117-4.859-4.878-4.647-5.67.176-.66.176-.66 1.842 1.184.916 1.014 3 3.158 4.633 4.765 2.312 2.277 2.91 2.991 2.709 3.234-.143.172-.371.312-.508.312-.138 0-1.95-1.721-4.029-3.825zm-5.393-5.766c-.08-.128.013-.364.206-.524.382-.318.462-.069.14.439-.122.193-.258.227-.346.085zm-2.707-3.325c-.792-1.024-1.44-1.901-1.44-1.949 0-.048.233-.104.518-.126.655-.05 1.14.341.97.782-.083.217-.014.296.19.222.275-.1 1.157.891 1.928 2.167.163.27.116.275-.283.025-.584-.364-.917-.112-.506.383.164.197.245.358.18.358-.064 0-.765-.838-1.557-1.862zm148.059-.176c-.228-.228-.192-.784.05-.784.115 0 .264.212.332.47.12.463-.074.622-.382.314zm-140.092-1.932c0-.13.106-.3.235-.38.13-.08.235-.04.235.09 0 .128-.106.3-.235.38-.13.08-.235.04-.235-.09zm-1.176-.722c0-.123.185-.328.412-.456.322-.181.35-.294.127-.519-.223-.225-.361-.222-.647.015-.301.25-.362.236-.362-.081 0-.21-.106-.382-.236-.382-.3 0-.308-.867-.01-1.052.124-.076.165-.294.093-.484-.223-.58.242-.385.858.36.32.389.712.706.87.706.254 0-.072-.35-2.188-2.353-.272-.258-.578-.47-.68-.47-.101 0-.325-.184-.497-.41-.172-.227-.315-.328-.32-.225-.004.104.272.446.612.762.513.475.569.634.324.93-.53.638-1.084.379-1.988-.934-1.013-1.472-1.186-2.161-.51-2.045.31.054.403-.028.31-.27-.184-.48.076-.68.464-.359.25.207.292.19.191-.072-.079-.206-.453-.34-.953-.34-.568 0-.788.093-.709.299.063.164.017.358-.102.432-.184.113-1.409-1.52-1.409-1.878 0-.068.238-.135.53-.15.397-.02.426-.054.117-.135-.227-.059-.412-.203-.412-.32 0-.116-.29-.363-.647-.548-1.51-.787-7.782-14.15-7.441-15.854.108-.54.044-.712-.297-.802-.322-.084-.63-.775-1.193-2.679-.93-3.14-1.893-7.112-2.096-8.644l-.152-1.14.775.4c.684.354.798.359.973.045.114-.203.39-.305.646-.239.35.092.558.61.961 2.39.637 2.809 2.019 7.73 2.64 9.396.255.685.408 1.391.34 1.568-.068.178.004.372.16.432.157.06.64 1.022 1.074 2.138 2.312 5.945 6.604 13.479 10.904 19.144.886 1.168 1.262 1.86 1.18 2.175-.066.254-.221.462-.344.462-.123 0-.157.211-.075.47.115.361.006.525-.47.705-.763.29-.823.291-.823.012zm-5.41-10.463c0-.057-.105-.17-.234-.25-.13-.08-.236-.033-.236.104s.106.25.236.25c.129 0 .235-.047.235-.104zm-.5-1.073c.095 0 .299.127.454.283.346.346.366.079.039-.533-.134-.25-.399-.455-.588-.455-.19 0-.345-.106-.345-.235 0-.419-.412-.25-.534.22-.066.25.054.67.266.933.303.376.402.405.462.134.042-.19.153-.347.247-.347zm-6.32-11.759c0-.13-.1-.235-.22-.235-.123 0-.288.106-.368.235-.08.13.02.235.222.235.201 0 .366-.105.366-.235zm14.582 22.225c-.169-.203-.192-.353-.054-.353.131 0 .3.16.374.353.074.194.099.353.054.353-.045 0-.213-.159-.374-.353zm-4.315-1.204c-.5-.68-.491-.701.376-.919.537-.135.646-.086.646.289 0 .248-.132.624-.294.836-.266.35-.335.33-.728-.206zm-9.502-1.442c-2.69-4.22-4.888-8.248-5.454-9.995-.157-.485-.384-.882-.503-.882-.12 0-.217-.205-.217-.456 0-.252-.096-.516-.213-.589-.203-.125-2.374-5.074-2.374-5.411 0-.274 1.042.132 1.352.527.162.206.294.611.294.9 0 .29.136.667.3.838.166.17.602.998.97 1.84 1.666 3.804 4.236 8.56 6.72 12.431 1.014 1.58 1.182 1.985.944 2.271-.16.192-.372.349-.473.349-.101 0-.707-.82-1.346-1.823zm155.634 1.588c0-.13.105-.235.235-.235s.235.105.235.235-.106.235-.235.235a.236.236 0 0 1-.235-.235zm1.99-2.174c-.087-.224.17-1.042.607-1.927.802-1.63 1.4-2.36 1.4-1.71 0 .2.123.403.273.453.294.098-.547 1.652-1.558 2.878-.482.584-.597.633-.723.306zm3.184-4.985c0-.187.096-.399.213-.471.117-.073.158.08.09.339-.144.549-.303.618-.303.132zm-7.24-6.658c.915-1.779 1.755-3.336 1.867-3.46.259-.288 3.02-.43 3.02-.155 0 .349-2.105 4.761-2.61 5.47-.434.61-.608.673-1.874.673-1.083 0-1.395.079-1.395.353a.346.346 0 0 1-.337.352c-.228 0 .201-1.044 1.328-3.233zm9.356 1.83c0-.62.28-1.52.793-2.542.435-.87.87-1.846.965-2.17.096-.323.692-1.982 1.325-3.686 2.798-7.53 4.68-15.982 5.403-24.275.175-2.003.228-5.6.147-9.878-.125-6.53-.358-9.162-1.231-13.913-.623-3.39-.687-4.546-.27-4.892.318-.264.398-.185.598.594.724 2.81 1.499 7.928 1.928 12.738.355 3.972.154 15.124-.339 18.778-.443 3.29-1.269 7.946-1.586 8.948a9.97 9.97 0 0 0-.326 1.444c-.39 3.076-3.78 12.796-6.35 18.204-.814 1.711-1.057 1.86-1.057.65zm-6.56-7.71c.387-.873.8-1.8.917-2.058.517-1.132 2.587-7.727 3.077-9.806.295-1.254.618-2.23.716-2.169.099.061.141-.087.095-.328-.047-.241.056-1.117.228-1.946.436-2.104 1.009-6.214 1.284-9.216.128-1.393.351-2.755.496-3.027.146-.271.162-.43.036-.352-.145.09-.24-1.423-.257-4.117-.028-4.096-.258-7.646-.725-11.137-.581-4.349-.593-4.167.32-4.975 1.267-1.122 1.509-1.14 1.675-.13.078.48.34 1.983.583 3.341.591 3.312.716 4.555 1.062 10.583.166 2.886-.213 10.193-.724 13.955-1.004 7.4-3.338 16.219-5.467 20.656-.765 1.593-.964 1.832-1.719 2.058-.47.14-1.178.256-1.576.256h-.722zm-165.012.084c-.386-.282-.403-.381-.126-.715.364-.438.68-.235.828.53.115.594-.075.644-.702.185zm-.908-1.475c-.09-.28-.092-.8-.003-1.156.132-.525.094-.62-.203-.506-.376.144-.813-1.036-2.03-5.472-1.165-4.247-2.468-11.5-2.693-14.985-.087-1.353-.063-1.445.332-1.234.586.314.676.504.792 1.676.505 5.083 2.205 13.113 3.89 18.374.661 2.063.695 2.321.401 3.033-.298.723-.333.742-.486.27zm3.881-16.52c-.178-.112-.25-.325-.158-.472.093-.15-.137-.551-.524-.912-.59-.552-.721-.905-.914-2.476-.212-1.725-.048-2.518.378-1.828.093.15.352.202.577.116.278-.106.532.022.8.404.464.663.636 1.618.29 1.618a.242.242 0 0 0-.242.24c0 .135.244.178.56.1.501-.127.57-.052.659.706.071.61-.02.955-.327 1.232-.234.212-.412.5-.396.641.096.83-.105 1.01-.703.632zm-1.993-7.836a82.467 82.467 0 0 1 .187-15.704 26.69 26.69 0 0 0 .11-1.353c.013-.339.17-.529.433-.529.296 0 .411-.189.411-.675 0-.485-.093-.64-.33-.549-.265.102-.301-.058-.18-.794.084-.507.154-1.1.155-1.316.001-.218.179-.571.394-.786.326-.326.336-.424.064-.593-.266-.164-.225-.34.225-.947.422-.571.48-.789.25-.932-.238-.147-.166-.757.343-2.911.603-2.551.68-2.726 1.214-2.726.333 0 .57-.138.57-.331 0-.224-.165-.288-.51-.198-.398.104-.478.051-.366-.242.08-.207.263-.832.408-1.39 1.06-4.073 5.285-14.302 5.909-14.302.155 0 .216-.066.135-.147-.215-.215.693-1.889 1.113-2.05.197-.075.301-.287.231-.469-.213-.556 3.798-7.019 5.843-9.414.724-.848.799-.881 1.119-.496.313.378.297.4-.184.246-.776-.246-.647.116.347.979l.877.76-.444.768a17.927 17.927 0 0 1-1.076 1.591c-.66.86-3.88 6.137-4.562 7.475-.216.425-.468.735-.56.69-.091-.045-.395.158-.675.451-.414.434-.45.58-.196.792.253.21.074.76-.942 2.893-1.548 3.249-3.324 8.035-4.425 11.923-.855 3.024-2.042 8.121-2.042 8.773 0 .556-.83.704-1.628.291-.625-.323-.695-.325-.575-.012.126.327.406.454.85.383.098-.015.185.158.196.384.01.246.066.293.137.118.065-.162.275-.294.467-.294.373 0 .366.161-.173 3.998-.136.97-.306 4.807-.378 8.525-.073 3.72-.224 6.762-.337 6.762-.113 0-.205.15-.205.333a.567.567 0 0 1-.294.472c-.162.076-.003.1.352.052.579-.077.647-.013.647.603 0 .38-.159.849-.353 1.043-.202.202-.352.242-.352.092 0-.188-.132-.19-.476-.006-.26.14-.583.188-.715.106-.133-.082-.383-.031-.555.112-.256.212-.34-.058-.454-1.45zm1.494-1.462c0-.057-.106-.169-.235-.249-.13-.08-.235-.033-.235.104s.106.249.235.249c.13 0 .235-.047.235-.104zm1.552-17.33l.024-.618-.794.469c-.633.373-.74.535-.524.794.148.18.178.328.065.33-.113.002-.06.095.116.207.442.28 1.084-.401 1.113-1.182zm.205-5.32a3.586 3.586 0 0 0-.225-.834c-.168-.397-.2-.393-.514.056-.276.394-.281.54-.03.825.42.476.825.45.77-.047zm7.061-21.463c-.079-.128-.243-.233-.365-.233-.256 0-.3.783-.058 1.026.22.22.605-.499.423-.793zm-17.19 45.119c-.308-.497-.28-1.591.047-1.863.253-.21.372-.133.56.363.348.914.3 1.774-.1 1.774a.661.661 0 0 1-.508-.274zm-.086-3.238c-.313-.585-.318-7.777-.008-11.187.543-5.975 2.021-14.206 2.977-16.58.078-.195.176-.612.217-.928.145-1.103 2.522-7.918 3.902-11.183 2.212-5.237 5.607-11.547 8.132-15.112.792-1.12 1.178-1.47 1.616-1.47.521 0 .55.05.302.529-.15.29-.584.952-.964 1.47-3.322 4.52-8.553 15.41-10.845 22.577-1.553 4.855-3.456 13.012-3.456 14.813 0 .3-.224.638-.53.799-.339.178-.371.232-.09.15.402-.117.427-.023.29 1.11-.432 3.563-.604 6.537-.627 10.774-.02 3.819-.085 4.692-.349 4.692-.178 0-.434-.204-.567-.454zm176.145-19.729c0-.284.446-.615.61-.452.059.059-.054.241-.251.405-.224.185-.359.203-.359.047zm-.94-4.717c0-.277.811-.97 1.135-.97.362 0 .352.354-.018.64-.45.348-1.118.545-1.118.33zm8.394-1.486a46.737 46.737 0 0 1-.502-1.953c-.798-3.645-4.128-12.097-6.988-17.738a570.395 570.395 0 0 1-2.316-4.594c0-.014.245-.046.543-.07.437-.037.708.24 1.39 1.418 2.527 4.372 5.406 11.03 7.092 16.398 1.893 6.032 2.11 6.874 1.868 7.258-.445.706-.745.508-1.087-.72zm-10.234-3.886c-1.056-3.069-1.36-4.214-1.15-4.347.2-.127.169-.182-.102-.184a.607.607 0 0 1-.521-.357c-.08-.206-.003-.353.182-.353.39 0 .676-.967.375-1.267-.133-.133-.36-.1-.586.088-.202.168-.403.264-.445.214-.042-.051-.823-1.646-1.735-3.545a84.106 84.106 0 0 0-5.522-9.823c-.907-1.388-1.08-1.793-.788-1.853a.477.477 0 0 0 .372-.44c0-.297.065-.31.353-.072.295.245.353.211.353-.206 0-.583-.138-.609-.961-.179-.793.414-1.434.014-1.23-.767.11-.419.05-.513-.285-.453-.29.053-.872-.48-1.848-1.687-.784-.97-2.197-2.664-3.14-3.763-1.543-1.8-1.675-2.029-1.314-2.293.22-.162.705-.294 1.077-.294.57 0 .653-.075.528-.47-.083-.26-.083-.471 0-.471.79 0 2.018 1.721 1.555 2.184-.174.173-.31.079-.457-.318-.195-.527-.218-.533-.34-.098-.104.37-.08 1.281.045 1.71.081.276.96-.534.96-.885 0-.247.093-.506.207-.576.304-.188 4.382 4.902 6.769 8.449 4.574 6.8 8.873 15.776 10.812 22.577l.536 1.882-.99.872c-.543.48-1.053.876-1.132.882-.08.006-.79-1.865-1.578-4.157zm-10.155-23.095c0-.12.064-.384.143-.588.093-.244.013-.372-.235-.372-.208 0-.378-.08-.379-.177 0-.097-.262-.191-.582-.21-.492-.028-.548.033-.356.39.152.285.402.386.76.308.391-.086.446-.056.207.112-.178.126-.251.347-.162.491.195.316.604.347.604.046zm-.235-1.77c0-.057-.106-.169-.235-.249-.13-.08-.236-.033-.236.104s.106.25.236.25c.129 0 .235-.048.235-.105zm8.781 1.325c-.234-.348-.534-.81-.664-1.027-.51-.843-2.958-4.183-4.665-6.366-1.112-1.422-1.74-2.426-1.656-2.646.16-.417.216-.426.78-.125.881.472 6.908 8.818 7.196 9.966.212.843-.465.978-.99.198zm-144.72-2.573c0-.097-.318-.357-.705-.577-.387-.22-.704-.545-.704-.722 0-.51 1.652-2.31 1.96-2.134.15.086.195.07.1-.036-.096-.106-.06-.331.082-.502.211-.254.375-.248.927.038.369.19.87.346 1.113.346.244 0 .51.068.593.15.16.16-.85 1.569-2.04 2.849-.659.708-1.322 1.002-1.326.588zm.92-2.555c-.344-.415-.51-.293-.311.227.081.212.248.323.37.248.132-.082.108-.274-.059-.475zm-11.031 1.209c0-.578 5.505-7.65 5.955-7.65.28 0 .983-.745.983-1.042 0-.138.106-.255.235-.26.13-.005.46-.133.733-.286.936-.52.785.007-.39 1.363-.869 1.004-1.291 1.324-1.63 1.236-.353-.093-.489.032-.602.552-.229 1.046-.553 1.592-1.665 2.804-.568.618-1.032 1.175-1.032 1.237 0 .317-1.245 1.687-1.533 1.687-.2 0-.28.141-.198.352.093.245-.017.353-.36.353-.28 0-.496-.15-.496-.346zm11.766-3.172c-.19-.12-.267-.298-.17-.394.096-.097.353.004.572.222.425.425.17.534-.402.172zm2.354-.965c-1.345-.612-1.318-.57-.851-1.283.277-.423.53-.565.835-.468.24.076.506.028.589-.106.083-.135.357-.245.608-.245.566 0 .58-.205.045-.618-.376-.29-.248-.476 1.474-2.143 3.564-3.448 6.776-6.066 7.156-5.831.136.084.248-.007.248-.203 0-.655 6.719-5.137 11.76-7.844 2.3-1.235 8.17-3.888 9.117-4.12.307-.075.674.01.867.203.209.21.388.245.48.097.08-.13.008-.24-.162-.245-.18-.005-.088-.191.22-.448.594-.495 5.322-2.054 8.88-2.927 4.532-1.113 7.21-1.568 13.523-2.296 3.14-.362 12.227-.36 15.757.005 12.497 1.29 24.319 4.97 34.455 10.723 3.654 2.074 8.517 5.288 9.374 6.195.666.705.674 1.22.02 1.22-.187 0-.34.09-.34.198 0 .109-.248.31-.551.449-.463.21-.728.137-1.646-.46-.602-.392-1.095-.864-1.095-1.05 0-.443-1.616-3.559-1.955-3.768-.145-.09-.713-.182-1.263-.205-.892-.037-.975.003-.775.378.124.23.324.455.445.499.122.043.297.386.39.76l.17.682-1.077-.74c-.592-.407-1.185-.74-1.317-.74-.133 0-.797-.328-1.476-.729-2.12-1.249-6.54-3.38-9.605-4.632-3.52-1.436-7.475-2.871-7.914-2.871-.175 0-.317-.103-.317-.228s-.137-.175-.304-.111c-.166.064-1.569-.204-3.116-.596-1.547-.391-4.241-.942-5.988-1.223-1.746-.281-3.225-.551-3.286-.6-.06-.05.045-.188.236-.309.295-.187.29-.22-.039-.222-.21-.002-.439-.215-.507-.474-.067-.259-.24-.47-.382-.47-.178 0-.169.144.031.464.487.78-.02 1.013-1.793.823-.938-.1-1.546-.273-1.527-.433.074-.619-.053-.826-.553-.903-.29-.044-.506-.2-.477-.346.1-.517-.63-.533-.905-.02-.213.398-.206.532.03.61.166.056-.043.246-.464.423-1.042.438-3.649.407-4.868-.058-.874-.334-1.038-.339-1.34-.037-.244.244-1.19.392-3.245.508-3.4.192-7.285.672-10.878 1.344-2.347.438-2.587.447-2.781.1-.255-.455-.81-.318-2.007.494-.463.313-2.224 1.006-3.915 1.538-10.201 3.21-19.258 7.975-27.62 14.53-1.081.847-2.034 1.542-2.116 1.544-.083 0-.88.715-1.77 1.587s-1.698 1.585-1.794 1.585c-.095 0-.954.792-1.908 1.76l-1.734 1.761zm2.46-1.846l.47-.291-.47.168a9.008 9.008 0 0 1-1.176.295c-.699.125-.7.127-.117.277.323.083.64.082.705-.003.065-.085.33-.285.588-.446zm1.106-1.714c-.22-.22-.345-.22-.565 0-.22.22-.156.282.283.282.439 0 .501-.063.282-.282zm1.364-.188c0-.13-.047-.235-.104-.235-.057 0-.169.105-.249.235-.08.13-.033.235.104.235s.249-.106.249-.235zm1.327-1.294c.45-.45.109-.445-.49.007-.256.194-.326.346-.16.346.164 0 .456-.16.65-.353zm11.138-9.407a.359.359 0 0 0-.362-.353c-.3 0-.31.06-.06.344.386.437.422.438.422.009zm67.315-9.892c.073-.072.015-.439-.127-.815-.238-.632-.29-.656-.666-.315-.333.3-.357.453-.13.816.274.439.666.572.923.314zm-1.464-.339c0-.13-.112-.235-.249-.235s-.183.106-.103.235c.08.13.192.235.249.235.057 0 .103-.105.103-.235zm39.315 23.678c-.282-.3-.433-.635-.335-.743.098-.108.006-.135-.204-.06-.248.088-.665-.156-1.176-.69-.436-.455-1.787-1.686-3-2.735-1.215-1.049-2.088-1.947-1.941-1.996.147-.049.267-.194.267-.322 0-.127.16-.39.353-.585.194-.194.356-.583.36-.865.007-.483.026-.488.33-.088.176.233.358.312.404.176.169-.508 7.02 5.945 7.02 6.613 0 .157-.151.08-.336-.171-.382-.52-.461-.393-.715 1.13-.17 1.028-.328 1.08-1.027.336zm.833-1.64c.343-.19.454-.394.328-.598-.148-.238-.346-.173-.872.29-.727.639-.393.828.544.308zm-129.753-2.933c0-.114 1.456-1.64 3.235-3.391 2.998-2.951 3.29-3.176 3.978-3.075.743.109.74.112-2.443 3.201-2.012 1.952-3.373 3.097-3.69 3.105-.277.007-.634.092-.792.19-.158.098-.288.085-.288-.03zm135.879-1.35c-.089-.465-.048-.536.194-.336.168.14.248.406.178.59-.18.467-.242.424-.372-.254zm-2.294-1.583c-4.31-3.99-8.757-7.567-12.707-10.222-2.186-1.47-2.477-1.784-2.007-2.175.28-.232.663-.08 2.061.823 6.244 4.03 14.729 11.497 14.322 12.606-.111.304-.455.091-1.669-1.032zM39.59 125.45c-.289-.183-.29-.271-.012-.607.582-.7 4.788-3.85 4.982-3.73.566.35.002 1.112-2.041 2.76-1.227.989-2.312 1.796-2.411 1.794-.1-.002-.333-.1-.518-.217zm6.1-4.46c0-.25-.115-.492-.255-.54-.3-.099 5.305-3.81 8.42-5.573 2.94-1.665 8.303-4.212 11.59-5.503 3.616-1.422 8.478-3.01 8.732-2.852.361.223.24 1.103-.133.96-.185-.071-.37-.045-.411.057-.04.103-.974.481-2.073.84-3.82 1.25-9.077 3.415-12.818 5.283-5.069 2.531-5.838 2.978-10.642 6.176-1.983 1.32-2.41 1.524-2.41 1.151zm101.129-4.398c-6.623-3.998-16.626-8.043-24.685-9.982-3.522-.847-4.008-1.035-4.008-1.546 0-.333.183-.369 1.234-.244.678.08 1.265.242 1.305.36.039.118.252.167.472.11.488-.128 6.783 1.657 10.566 2.996 6.995 2.475 17.585 7.794 17.585 8.833 0 .72-.622.588-2.469-.527zm-71.655-9.641a1.067 1.067 0 0 1 0-.66c.144-.377 1.882-.737 2.303-.476.17.104.218.073.124-.08-.31-.502 7.885-2.019 14.195-2.628 2.482-.239 15.445-.125 17.937.158 1.545.175 1.733.308 1.367.962-.142.254-.69.262-2.978.048-5.553-.521-14.683-.307-20.677.484-2.34.31-8.128 1.456-10.423 2.065-1.444.383-1.742.404-1.848.127zm39.435-1.874c-.97-.17-1.776-.315-1.79-.323-.153-.084.102-1.065.27-1.042 2.684.366 4.259.623 4.414.719.246.152-.528 1.024-.873.984a86.928 86.928 0 0 1-2.021-.338zm-2.569-1.18c.011-.275.067-.33.142-.143.068.17.06.373-.018.451-.078.078-.134-.06-.124-.309z"/><path d="M25.992 208.397h148.017" fill="#333" stroke="#000" stroke-width="1.867" stroke-linecap="round"/><g style="line-height:1.25;-inkscape-font-specification:'Hallelujah Regular, '" aria-label="handmade" font-weight="400" font-size="40" font-family="Allura" letter-spacing="0" word-spacing="0"><path style="-inkscape-font-specification:Allura" d="M83.004 221.811c-.52-.286-.832.417-.338.677-.572.78-1.327 1.64-2.082 2.602-.234.338-.234.937.026.65a50.979 50.979 0 0 0 2.134-2.472c-.754 1.926-1.926 5.361-2.082 5.752-.26.494 1.12-.13 1.38-.26.494-.287 2.68-3.722 4.163-5.075 1.9-1.64 2.03-1.041 1.562-.182-.52.963-1.25 2.316-1.38 3.409-.078.494-.078.937.027 1.249.52 1.561 2.472.937 3.305.312 1.275-.937 2.862-2.654 3.357-3.565.13-.234-.156-.39-.313-.208-1.093 1.51-3.044 3.149-3.877 3.617-.859.443-1.38-.156-1.197-1.275.052-.573.338-1.562.833-2.576.39-.73 1.249-1.9 1.17-2.759-.051-.807-1.014-.755-2.211.156-1.432 1.12-3.696 3.565-4.789 4.919.26-.807.703-2.238 1.51-4.034 2.446-1.978 6.011-4.58 7.39-7 .599-1.067.729-2.265-.754-2.55-3.41-.703-6.87 7.078-7.313 8.015a4.305 4.305 0 0 1-.39.65zm1.718-.234c1.353-2.993 2.837-5.517 5.179-7.313 1.301-.989 1.691-.234 1.04 1.015-1.17 2.212-4.137 4.945-6.219 6.298z"/><path style="-inkscape-font-specification:Allura" d="M93.726 228.838c2.082 0 4.554-3.644 4.997-3.852-.338.91-.65 2.472-.417 3.175.521 1.561 2.447.937 3.28.312 1.3-.937 2.914-2.654 3.383-3.565.13-.234-.183-.39-.313-.208-1.067 1.51-3.018 3.149-3.877 3.617-.833.443-1.353-.156-1.197-1.275.104-.833.624-2.446 1.561-3.774.234-.416-.78-.624-1.04-.624-.235 0-2.213 2.186-2.577 2.576-.677.729-1.848 1.718-2.525 2.29-.364.287-1.64 1.223-2.003.703-.807-1.145 1.353-3.617 2.082-4.294 1.353-1.197 3.174-2.238 4.528-2.238.494 0 1.015.052 1.3.494.131.053.157.053.157-.13 0-.26-.182-.52-.442-.702-.677-.469-1.822-.417-2.603-.209-1.952.469-7.885 4.373-5.96 6.819.391.52 1.12.885 1.666.885z"/><path style="-inkscape-font-specification:Allura" d="M110.2 223.529c-.651 1.197-2.785 5.335-.053 5.595.729.078 1.588-.286 2.082-.65 1.301-.938 2.889-2.655 3.383-3.566.13-.234-.208-.39-.338-.208-1.067 1.51-3.045 3.149-3.878 3.617-.832.443-1.353-.156-1.197-1.275a8.46 8.46 0 0 1 .599-1.978c.338-.885.937-1.691 1.223-2.576.52-1.562-.572-1.744-2.082-.625-1.431 1.12-3.695 3.565-4.788 4.919.312-.833 1.145-3.15 1.795-4.58.209-.417.235-.651-.182-.755-1.353-.365-1.249.859-1.379 1.17-.52 1.432-2.056 5.882-2.264 6.403-.26.494 1.119-.13 1.38-.26.494-.287 2.68-3.722 4.163-5.075 1.9-1.64 2.004-.99 1.535-.156z"/><path style="-inkscape-font-specification:Allura" d="M116.263 228.838c1.561 0 4.32-2.993 5.907-4.84-.676 1.69-2.81 7.312-.208 7.728.469.078 1.353 0 1.718-.26a5.3 5.3 0 0 0 .39-.442c.156-.313.026-.39-.286-.209-.182.104-.26.209-.39.287-.495.39-.963.208-1.172-.209-.442-.728-.39-1.951.026-3.59.313-1.172.911-2.994 1.432-4.217 2.342-2.03 6.115-4.632 7.65-7.338.6-1.067.73-2.265-.754-2.55-2.993-.6-5.57 4.19-7.313 8.223l-.104-.078c-.65-.469-1.821-.417-2.602-.209-1.952.469-7.885 4.373-5.96 6.819.39.52 1.12.885 1.666.885zm6.792-7l-.364.884c-1.562 1.665-3.41 3.357-5.153 4.788-.364.287-1.64 1.223-2.004.703-.807-1.145 1.353-3.617 2.082-4.294 1.353-1.197 3.175-2.238 4.528-2.238.339 0 .65.026.911.156zm1.405-.261c1.354-2.993 2.837-5.517 5.18-7.313 1.3-.989 1.69-.234 1.04 1.015-1.17 2.212-4.138 4.945-6.22 6.298z"/><path style="-inkscape-font-specification:Allura" d="M125.814 224.387c-.651 1.874-1.484 4.294-1.64 4.633-.26.494 1.12-.13 1.38-.26.494-.287 2.68-3.722 4.163-5.075 1.9-1.64 2.134-1.093 1.666-.26-.234.442-1.041 2.003-1.562 3.253-.39.989.99.754 1.302 0 .78-.807 2.342-2.629 3.93-3.253-.261.39-.547 1.093-.73 1.561-.364.91-.65 2.472-.442 3.175.52 1.561 2.446.937 3.305.312 1.301-.937 2.889-2.654 3.383-3.565.13-.234-.208-.39-.338-.208-1.067 1.51-3.019 3.149-3.878 3.617-.832.443-1.353-.156-1.197-1.275.104-.833.729-2.628 1.64-4.008.702-1.067-1.12-.442-1.406-.338-1.17.442-2.68 1.691-3.59 2.524.233-.416.728-1.561.988-2.056 1.093-2.16-.104-2.602-1.796-1.3-1.43 1.118-3.695 3.564-4.788 4.918.312-.833 1.145-3.15 1.796-4.58.208-.417.234-.651-.183-.755-1.17-.313-1.275.598-1.353 1.04-.442.86-.65 1.198-1.717 2.603-.235.338-.235.937.026.65.312-.312.702-.832 1.04-1.353z"/><path style="-inkscape-font-specification:Allura" d="M141.22 228.838c2.082 0 4.554-3.644 4.996-3.852-.338.91-.65 2.472-.416 3.175.52 1.561 2.446.937 3.279.312 1.301-.937 2.915-2.654 3.383-3.565.13-.234-.182-.39-.312-.208-1.067 1.51-3.019 3.149-3.878 3.617-.833.443-1.353-.156-1.197-1.275.104-.833.625-2.446 1.562-3.774.234-.416-.781-.624-1.041-.624-.235 0-2.212 2.186-2.577 2.576-.676.729-1.847 1.718-2.524 2.29-.364.287-1.64 1.223-2.004.703-.807-1.145 1.353-3.617 2.082-4.294 1.353-1.197 3.175-2.238 4.528-2.238.495 0 1.015.052 1.301.494.13.053.157.053.157-.13 0-.26-.183-.52-.443-.702-.677-.469-1.822-.417-2.602-.209-1.952.469-7.886 4.373-5.96 6.819.39.52 1.12.885 1.666.885z"/><path style="-inkscape-font-specification:Allura" d="M153.113 228.838c1.561 0 4.32-2.993 5.907-4.84-.677 1.69-2.81 7.312-.208 7.728.468.078 1.353 0 1.717-.26a5.3 5.3 0 0 0 .39-.442c.157-.313.027-.39-.285-.209-.183.104-.26.209-.39.287-.495.39-.964.208-1.172-.209-.442-.728-.39-1.951.026-3.59.312-1.172.911-2.994 1.431-4.217 2.343-2.03 6.116-4.632 7.652-7.338.598-1.067.728-2.265-.755-2.55-2.993-.6-5.57 4.19-7.313 8.223l-.104-.078c-.65-.469-1.822-.417-2.602-.209-1.952.469-7.886 4.373-5.96 6.819.39.52 1.12.885 1.666.885zm6.792-7l-.364.884c-1.562 1.665-3.41 3.357-5.153 4.788-.364.287-1.64 1.223-2.004.703-.807-1.145 1.353-3.617 2.082-4.294 1.353-1.197 3.175-2.238 4.528-2.238.338 0 .65.026.91.156zm1.405-.261c1.353-2.993 2.837-5.517 5.179-7.313 1.301-.989 1.692-.234 1.04 1.015-1.17 2.212-4.137 4.945-6.219 6.298z"/><path style="-inkscape-font-specification:Allura" d="M168.597 223.477c.494-.729.65-2.056-.417-2.42-1.951-.651-5.985 2.758-6.766 4.528-1.431 3.279 1.9 4.346 4.554 3.279 1.822-.755 3.462-2.186 4.503-3.904.104-.13.104-.26-.026-.312-.053-.052-.183-.052-.287.078-.937 1.431-2.602 2.836-4.528 3.617-1.691.677-3.695.65-3.045-1.535.573-1.9 2.81-4.06 4.346-4.763.365-.182 1.302-.572 1.328.156.052.573-.73 1.354-1.172 1.692-.962.78-2.42 1.614-3.253 1.692-.39.026-.208.39.183.364 1.17-.104 3.643-1.093 4.58-2.472z"/></g><g style="line-height:1.25;-inkscape-font-specification:'Centabel Book, '" aria-label="MISS POPPY's" font-weight="400" font-size="40" font-family="Quicksand" letter-spacing="0" word-spacing="0" stroke-width=".17"><path style="-inkscape-font-specification:Quicksand" d="M24.098 182.046q.164 0 .328.07.187.07.304.235l6.468 9.72-.633-.024 6.491-9.696q.258-.352.633-.305.281 0 .469.21.21.189.21.494v15.025q0 .282-.21.493-.211.212-.516.212-.328 0-.539-.212-.21-.21-.21-.493v-13.593l.42.047-5.928 8.992q-.07.14-.21.235-.141.07-.329.047-.164.023-.328-.047-.14-.094-.234-.235l-5.952-9.086.445-.305v13.945q0 .282-.21.493-.188.212-.493.212t-.492-.212q-.187-.21-.187-.493V182.75q0-.282.187-.493.21-.211.516-.211zM44.227 197.752q-.024.305-.258.516-.211.212-.492.212-.328 0-.54-.212-.187-.21-.187-.516v-14.979q0-.305.211-.516.211-.211.54-.211.28 0 .491.21.235.212.235.517zM53.131 198.715q-1.78.023-3.093-.564-1.312-.587-2.507-1.76-.117-.095-.211-.236-.07-.14-.07-.328 0-.282.21-.517.235-.234.516-.234t.516.234q.913.986 2.062 1.503 1.171.516 2.507.516 1.125 0 1.992-.352.89-.352 1.406-1.01.515-.657.515-1.525 0-1.08-.585-1.738-.586-.68-1.547-1.103-.96-.446-2.132-.798-.961-.282-1.828-.634-.867-.376-1.547-.892-.68-.54-1.054-1.315-.375-.775-.375-1.878 0-1.245.656-2.207.656-.963 1.851-1.503 1.219-.563 2.812-.563 1.383 0 2.648.47 1.289.469 2.039 1.384.351.376.351.681 0 .235-.234.47t-.516.235q-.234 0-.398-.165-.398-.493-1.008-.868-.609-.4-1.359-.61-.726-.212-1.523-.212-1.101 0-1.992.352-.867.329-1.382.963-.492.634-.492 1.526 0 .986.562 1.62.562.634 1.476 1.056.914.4 1.945.751 1.008.282 1.922.658.937.352 1.64.892.727.54 1.125 1.362.422.821.422 2.066 0 1.197-.68 2.16-.68.962-1.875 1.526-1.171.563-2.765.587zM66.3 198.715q-1.78.023-3.092-.564-1.313-.587-2.508-1.76-.117-.095-.21-.236-.071-.14-.071-.328 0-.282.21-.517.235-.234.516-.234.282 0 .516.234.914.986 2.062 1.503 1.172.516 2.507.516 1.125 0 1.992-.352.89-.352 1.406-1.01.516-.657.516-1.525 0-1.08-.586-1.738-.586-.68-1.547-1.103-.96-.446-2.132-.798-.96-.282-1.828-.634-.867-.376-1.546-.892-.68-.54-1.055-1.315-.375-.775-.375-1.878 0-1.245.656-2.207.656-.963 1.852-1.503 1.218-.563 2.812-.563 1.382 0 2.647.47 1.29.469 2.04 1.384.35.376.35.681 0 .235-.234.47t-.515.235q-.235 0-.399-.165-.398-.493-1.007-.868-.61-.4-1.36-.61-.726-.212-1.522-.212-1.102 0-1.992.352-.867.329-1.383.963-.492.634-.492 1.526 0 .986.562 1.62.563.634 1.477 1.056.914.4 1.945.751 1.007.282 1.921.658.938.352 1.64.892.727.54 1.125 1.362.422.821.422 2.066 0 1.197-.68 2.16-.679.962-1.874 1.526-1.172.563-2.765.587zM87.602 182.046q1.312 0 2.32.61 1.007.587 1.593 1.643.586 1.057.586 2.419 0 1.361-.586 2.465-.586 1.08-1.594 1.714-1.007.633-2.32.633h-4.967l.117-.234v6.48q0 .281-.211.492-.21.212-.492.212-.328 0-.516-.212-.187-.21-.187-.493V182.75q0-.282.21-.493.212-.211.493-.211zm0 8.123q.913 0 1.593-.446.68-.47 1.055-1.245.398-.798.398-1.76 0-.963-.398-1.69-.375-.752-1.055-1.175-.68-.422-1.593-.422h-4.968l.117-.212v7.09l-.14-.14zM109.933 190.263q0 1.854-.585 3.404-.563 1.526-1.617 2.676-1.055 1.127-2.508 1.761-1.429.61-3.14.61-1.71 0-3.163-.61-1.43-.634-2.484-1.76-1.055-1.151-1.64-2.677-.563-1.55-.563-3.404 0-1.855.563-3.381.585-1.55 1.64-2.677 1.054-1.15 2.484-1.76 1.453-.634 3.163-.634 1.711 0 3.14.634 1.453.61 2.508 1.76 1.054 1.127 1.617 2.677.585 1.526.585 3.38zm-1.5 0q0-2.09-.82-3.663-.796-1.596-2.226-2.488-1.429-.893-3.304-.893-1.85 0-3.304.893-1.43.892-2.25 2.488-.796 1.573-.796 3.663t.797 3.686q.82 1.573 2.25 2.465 1.452.892 3.303.892 1.875 0 3.304-.892 1.43-.892 2.227-2.465.82-1.597.82-3.686zM119.518 182.046q1.312 0 2.32.61 1.007.587 1.593 1.643.586 1.057.586 2.419 0 1.361-.586 2.465-.586 1.08-1.593 1.714-1.008.633-2.32.633h-4.968l.117-.234v6.48q0 .281-.21.492-.212.212-.493.212-.328 0-.516-.212-.187-.21-.187-.493V182.75q0-.282.21-.493.212-.211.493-.211zm0 8.123q.914 0 1.593-.446.68-.47 1.055-1.245.398-.798.398-1.76 0-.963-.398-1.69-.375-.752-1.055-1.175-.68-.422-1.593-.422h-4.968l.117-.212v7.09l-.14-.14zM133.484 182.046q1.312 0 2.32.61 1.007.587 1.593 1.643.586 1.057.586 2.419 0 1.361-.586 2.465-.586 1.08-1.593 1.714-1.008.633-2.32.633h-4.968l.117-.234v6.48q0 .281-.21.492-.212.212-.493.212-.328 0-.515-.212-.188-.21-.188-.493V182.75q0-.282.211-.493.211-.211.492-.211zm0 8.123q.914 0 1.593-.446.68-.47 1.055-1.245.398-.798.398-1.76 0-.963-.398-1.69-.375-.752-1.055-1.175-.68-.422-1.593-.422h-4.968l.117-.212v7.09l-.14-.14zM150.965 181.952q.305 0 .492.234.211.212.211.47 0 .117-.047.235-.023.094-.094.211l-5.506 7.583.28-.915v8.005q0 .282-.21.493-.21.212-.516.212-.304 0-.515-.212-.188-.21-.188-.493v-7.841l.118.563-5.367-7.348q-.093-.117-.14-.235-.047-.14-.047-.258 0-.305.234-.493.258-.211.516-.211.351 0 .586.328l5.038 6.88-.352-.048 4.898-6.832q.234-.328.61-.328zM153.73 182.656q.07-.61.68-.61h.773q.305.023.375.21.094.165.023.447l-1.5 5.071q-.14.493-.655.493-.375 0-.305-.61zM157.784 196.578q-.187-.282-.187-.54.023-.282.304-.446.188-.164.422-.14.258.023.469.234.632.822 1.523 1.338.914.493 2.156.493.656 0 1.289-.211.656-.235 1.078-.681.421-.47.421-1.174 0-.728-.421-1.174-.422-.446-1.102-.704-.656-.258-1.406-.446-.797-.211-1.546-.47-.75-.281-1.336-.68-.563-.423-.914-1.01-.352-.587-.352-1.432 0-.986.54-1.737.538-.752 1.452-1.174.938-.423 2.11-.423.585 0 1.265.164.68.141 1.335.493.657.353 1.172.963.211.211.211.493 0 .258-.234.47-.188.14-.446.14-.234 0-.398-.187-.562-.634-1.336-.963-.773-.329-1.663-.329-.68 0-1.29.235-.585.211-.983.658-.399.446-.399 1.173.047.681.469 1.104.445.422 1.148.704.727.282 1.617.517.75.187 1.43.446.702.258 1.218.657.539.376.844.963.328.587.328 1.479 0 1.033-.586 1.784-.563.751-1.523 1.15-.961.4-2.133.4-1.265 0-2.46-.493-1.172-.494-2.086-1.644z"/></g><g fill="none" stroke="#000" stroke-linecap="round"><path d="M107.766 143.553l-4.622 2.169c-4.726 2.215-11.508 5.389-12.473 5.812-.232-3.142.901-6.713 2.6-9.038s3.84-3.975 6.375-5.233c2.536-1.259 6.04-2.16 9.084-1.622 4.258.752 8.099 3.137 8.099 3.137s-.056 4.559-2.51 8.94c-1.269 2.267-3.406 4.431-6.035 6.009-2.34 1.405-5.85 2.249-9.481 2.194-6.211-.094-12.574-1.962-12.574-1.962l-10.133 5.334" stroke-width="1.504" stroke-linejoin="round"/><path d="M103.136 140.47c-2.529 4.754-2.685 5.121-2.685 5.121M99.843 141.96c-2.528 4.755-2.685 5.122-2.685 5.122M106.386 139.384c-2.407 4.252-2.556 4.58-2.556 4.58" stroke-width=".776"/></g></g></svg>