<svg xmlns="http://www.w3.org/2000/svg" viewBox="0 0 210 210" height="210mm" width="210mm"><path d="M23.086 118.084h161.102" fill="#333" stroke="#000" stroke-width="1.491" stroke-linecap="round"/><g style="line-height:1.25;-inkscape-font-specification:'Hallelujah Regular, '" aria-label="handmade" font-weight="400" font-size="40" font-family="Allura" letter-spacing="0" word-spacing="0"><path style="-inkscape-font-specification:Allura" d="M86.73 133.327c-.567-.313-.907.455-.368.74-.624.853-1.445 1.792-2.266 2.844-.255.37-.255 1.024.028.712a55.663 55.663 0 0 0 2.323-2.703c-.822 2.105-2.096 5.86-2.266 6.287-.284.54 1.218-.142 1.5-.284.539-.313 2.918-4.069 4.533-5.548 2.067-1.792 2.209-1.138 1.7-.2-.567 1.053-1.36 2.533-1.502 3.728-.085.54-.085 1.024.028 1.365.567 1.707 2.691 1.025 3.597.342 1.388-1.024 3.116-2.902 3.654-3.898.142-.256-.17-.427-.34-.227-1.19 1.65-3.314 3.442-4.22 3.954-.935.484-1.501-.17-1.303-1.394.057-.626.368-1.707.907-2.817.424-.796 1.36-2.076 1.274-3.015-.056-.882-1.104-.825-2.407.17-1.558 1.224-4.022 3.898-5.212 5.378.283-.882.765-2.447 1.643-4.41 2.662-2.162 6.543-5.007 8.044-7.653.651-1.167.793-2.475-.822-2.788-3.71-.768-7.477 7.738-7.959 8.762a4.71 4.71 0 0 1-.425.712zm1.87-.256c1.472-3.272 3.087-6.032 5.636-7.995 1.416-1.08 1.84-.256 1.133 1.11-1.275 2.418-4.504 5.405-6.77 6.885z"/><path style="-inkscape-font-specification:Allura" d="M98.4 141.008c2.265 0 4.956-3.983 5.438-4.21-.368.995-.708 2.702-.453 3.47.566 1.707 2.662 1.025 3.568.342 1.417-1.024 3.173-2.902 3.683-3.898.141-.256-.199-.427-.34-.227-1.162 1.65-3.286 3.442-4.22 3.954-.907.484-1.473-.17-1.304-1.394.114-.91.68-2.674 1.7-4.125.255-.455-.85-.683-1.133-.683-.255 0-2.408 2.39-2.804 2.817-.737.796-2.011 1.877-2.748 2.503-.396.313-1.784 1.337-2.18.768-.879-1.252 1.472-3.954 2.265-4.694 1.473-1.309 3.456-2.447 4.929-2.447.538 0 1.104.057 1.416.54.142.058.17.058.17-.141 0-.285-.198-.57-.482-.768-.736-.513-1.982-.456-2.832-.228-2.124.512-8.582 4.78-6.486 7.454.425.569 1.218.967 1.812.967z"/><path style="-inkscape-font-specification:Allura" d="M116.329 135.204c-.708 1.309-3.03 5.832-.057 6.117.793.085 1.728-.313 2.266-.711 1.416-1.024 3.144-2.902 3.682-3.898.142-.256-.226-.427-.368-.227-1.161 1.65-3.314 3.442-4.22 3.954-.907.484-1.473-.17-1.303-1.394a9.28 9.28 0 0 1 .651-2.162c.368-.967 1.02-1.85 1.332-2.817.566-1.707-.624-1.906-2.266-.682-1.558 1.223-4.023 3.897-5.212 5.377.34-.91 1.246-3.443 1.954-5.008.227-.455.255-.71-.198-.825-1.473-.398-1.36.94-1.501 1.28-.567 1.565-2.238 6.43-2.464 7-.284.54 1.217-.143 1.5-.285.539-.313 2.918-4.069 4.533-5.548 2.067-1.792 2.18-1.081 1.67-.17z"/><path style="-inkscape-font-specification:Allura" d="M122.928 141.008c1.7 0 4.702-3.272 6.43-5.292-.736 1.85-3.059 7.995-.227 8.45.51.085 1.473 0 1.87-.285.17-.17.311-.341.425-.483.17-.342.028-.427-.312-.228-.198.114-.283.228-.425.313-.538.427-1.048.228-1.274-.227-.482-.797-.425-2.134.028-3.927.34-1.28.991-3.271 1.558-4.608 2.549-2.22 6.656-5.064 8.327-8.023.652-1.167.793-2.475-.821-2.788-3.257-.655-6.062 4.58-7.96 8.99l-.113-.085c-.708-.513-1.982-.456-2.832-.228-2.124.512-8.582 4.78-6.486 7.454.424.569 1.218.967 1.812.967zm7.393-7.653l-.396.967c-1.7 1.821-3.711 3.67-5.609 5.235-.396.313-1.784 1.337-2.18.768-.879-1.252 1.472-3.954 2.265-4.694 1.473-1.309 3.456-2.447 4.929-2.447.368 0 .708.029.991.171zm1.53-.284c1.472-3.272 3.087-6.032 5.636-7.995 1.416-1.08 1.841-.256 1.133 1.11-1.274 2.418-4.503 5.405-6.77 6.885z"/><path style="-inkscape-font-specification:Allura" d="M133.323 136.143c-.708 2.049-1.614 4.694-1.784 5.064-.283.54 1.218-.142 1.501-.284.538-.313 2.918-4.069 4.532-5.548 2.068-1.792 2.323-1.195 1.813-.285-.255.484-1.133 2.191-1.7 3.557-.425 1.08 1.077.825 1.417 0 .85-.882 2.549-2.874 4.277-3.557-.284.427-.595 1.195-.794 1.707-.396.996-.708 2.703-.481 3.471.566 1.707 2.662 1.025 3.597.342 1.416-1.024 3.144-2.902 3.682-3.898.142-.256-.226-.427-.368-.227-1.161 1.65-3.285 3.442-4.22 3.954-.907.484-1.473-.17-1.303-1.394.113-.91.793-2.873 1.784-4.381.765-1.167-1.218-.484-1.53-.37-1.274.484-2.917 1.85-3.908 2.76.255-.456.793-1.707 1.076-2.248 1.19-2.361-.113-2.845-1.954-1.422-1.558 1.223-4.022 3.897-5.212 5.377.34-.91 1.247-3.443 1.955-5.008.226-.455.255-.71-.199-.825-1.274-.341-1.388.655-1.472 1.138-.482.94-.709 1.309-1.87 2.845-.255.37-.255 1.024.028.712.34-.342.765-.91 1.133-1.48z"/><path style="-inkscape-font-specification:Allura" d="M150.091 141.008c2.266 0 4.957-3.983 5.439-4.21-.368.995-.708 2.702-.453 3.47.566 1.707 2.662 1.025 3.568.342 1.417-1.024 3.173-2.902 3.683-3.898.141-.256-.199-.427-.34-.227-1.162 1.65-3.286 3.442-4.22 3.954-.907.484-1.473-.17-1.304-1.394.114-.91.68-2.674 1.7-4.125.255-.455-.85-.683-1.133-.683-.255 0-2.408 2.39-2.804 2.817-.737.796-2.011 1.877-2.748 2.503-.396.313-1.784 1.337-2.18.768-.879-1.252 1.472-3.954 2.265-4.694 1.473-1.309 3.456-2.447 4.929-2.447.538 0 1.104.057 1.416.54.142.058.17.058.17-.141 0-.285-.198-.57-.482-.768-.736-.513-1.982-.456-2.832-.228-2.124.512-8.582 4.78-6.486 7.454.425.569 1.218.967 1.812.967z"/><path style="-inkscape-font-specification:Allura" d="M163.036 141.008c1.7 0 4.702-3.272 6.43-5.292-.737 1.85-3.06 7.995-.227 8.45.51.085 1.473 0 1.87-.285.17-.17.31-.341.424-.483.17-.342.028-.427-.312-.228-.198.114-.283.228-.424.313-.539.427-1.048.228-1.275-.227-.481-.797-.425-2.134.028-3.927.34-1.28.992-3.271 1.558-4.608 2.55-2.22 6.656-5.064 8.328-8.023.651-1.167.793-2.475-.822-2.788-3.257-.655-6.061 4.58-7.959 8.99l-.113-.085c-.708-.513-1.983-.456-2.833-.228-2.124.512-8.582 4.78-6.486 7.454.425.569 1.218.967 1.813.967zm7.392-7.653l-.396.967c-1.7 1.821-3.71 3.67-5.608 5.235-.397.313-1.785 1.337-2.181.768-.878-1.252 1.473-3.954 2.266-4.694 1.472-1.309 3.455-2.447 4.928-2.447.368 0 .708.029.991.171zm1.53-.284c1.473-3.272 3.087-6.032 5.637-7.995 1.416-1.08 1.84-.256 1.132 1.11-1.274 2.418-4.503 5.405-6.77 6.885z"/><path style="-inkscape-font-specification:Allura" d="M179.889 135.147c.538-.796.708-2.247-.453-2.645-2.125-.712-6.515 3.015-7.365 4.95-1.558 3.584 2.068 4.75 4.957 3.584 1.983-.825 3.767-2.39 4.9-4.267.113-.142.113-.284-.028-.341-.057-.057-.199-.057-.312.085-1.02 1.565-2.832 3.101-4.928 3.954-1.841.74-4.022.712-3.314-1.678.623-2.077 3.059-4.438 4.73-5.206.397-.2 1.416-.626 1.445.17.056.626-.794 1.48-1.275 1.85-1.048.853-2.634 1.763-3.54 1.849-.426.028-.227.427.198.398 1.274-.114 3.965-1.195 4.985-2.703z"/></g><g style="line-height:1.25;-inkscape-font-specification:'Centabel Book, '" aria-label="MISS POPPY's" font-weight="400" font-size="40" font-family="Quicksand" letter-spacing="0" word-spacing="0" stroke-width=".17"><path style="-inkscape-font-specification:Quicksand" d="M34.84 106.616c0 .339.26.626.624.626a.633.633 0 0 0 .622-.626V89.73a.852.852 0 0 0-.103-.338c-.052-.079-.104-.13-.182-.209-.285-.182-.7-.13-.882.156l-6.435 8.991-6.46-8.99a.652.652 0 0 0-.882-.157c-.026.026-.052.026-.052.052a.594.594 0 0 0-.26.495v16.887c0 .339.286.626.65.626a.633.633 0 0 0 .622-.626V91.632l5.812 8.078c.13.209.31.287.544.287h.052a.6.6 0 0 0 .52-.287l5.81-8.104zM42.91 106.616c0 .339.285.626.623.626a.638.638 0 0 0 .648-.626v-16.99a.638.638 0 0 0-.648-.626.633.633 0 0 0-.623.625zM49.89 104.636c1.504 1.198 3.917 2.606 6.693 2.632 1.816 0 3.45-.548 4.67-1.434 1.22-.886 2.05-2.189 2.05-3.648 0-1.46-.804-2.658-1.998-3.44-1.193-.808-2.802-1.329-4.618-1.668h-.052c-1.635-.312-2.984-.755-3.892-1.38-.908-.626-1.323-1.304-1.349-2.216 0-.938.519-1.824 1.427-2.502.908-.651 2.231-1.094 3.71-1.094 1.998 0 3.555.99 4.982 1.928.26.183.622.104.778-.156a.583.583 0 0 0-.156-.808c-1.427-.938-3.217-2.11-5.604-2.11-1.712 0-3.243.494-4.385 1.328-1.141.834-1.894 2.033-1.894 3.414 0 1.355.753 2.45 1.868 3.18 1.116.755 2.595 1.224 4.281 1.537h.052c1.765.339 3.217.834 4.203 1.485.986.678 1.48 1.46 1.48 2.502 0 1.016-.546 1.98-1.557 2.71-.986.73-2.413 1.199-3.996 1.199-2.361.026-4.618-1.25-5.967-2.345a.552.552 0 0 0-.805.078.606.606 0 0 0 .078.808zM66.935 104.636c1.505 1.198 3.918 2.606 6.694 2.632 1.816 0 3.45-.548 4.67-1.434 1.22-.886 2.05-2.189 2.05-3.648 0-1.46-.804-2.658-1.998-3.44-1.193-.808-2.802-1.329-4.618-1.668h-.052c-1.635-.312-2.984-.755-3.892-1.38-.908-.626-1.323-1.304-1.349-2.216 0-.938.519-1.824 1.427-2.502.908-.651 2.231-1.094 3.71-1.094 1.998 0 3.555.99 4.982 1.928.26.183.622.104.778-.156a.583.583 0 0 0-.156-.808c-1.427-.938-3.217-2.11-5.604-2.11-1.712 0-3.243.494-4.385 1.328-1.141.834-1.894 2.033-1.894 3.414 0 1.355.753 2.45 1.868 3.18 1.116.755 2.595 1.224 4.281 1.537h.052c1.765.339 3.218.834 4.203 1.485.986.678 1.48 1.46 1.48 2.502 0 1.016-.546 1.98-1.557 2.71-.986.73-2.413 1.199-3.996 1.199-2.361.026-4.618-1.25-5.967-2.345a.552.552 0 0 0-.805.078.606.606 0 0 0 .078.808zM92.777 106.616c0 .339.285.626.622.626a.638.638 0 0 0 .649-.626V99.45l4.488-.052c2.854 0 5.164-2.32 5.164-5.186 0-2.867-2.31-5.212-5.164-5.212H93.4a.633.633 0 0 0-.622.625zm1.27-8.443v-7.896h4.49c2.153 0 3.917 1.772 3.917 3.935 0 2.163-1.764 3.935-3.918 3.96zM107.098 97.99c.026 5.108 3.866 9.252 8.77 9.252 4.852 0 8.666-4.144 8.691-9.252-.025-5.107-3.84-9.25-8.691-9.25-4.904 0-8.744 4.143-8.77 9.25zm1.272 0c0-4.508 3.373-7.948 7.498-7.948 3.995 0 7.368 3.44 7.394 7.948-.026 4.457-3.399 7.975-7.394 7.975-4.125 0-7.498-3.518-7.498-7.975zM129.956 106.616c0 .339.285.626.623.626a.638.638 0 0 0 .648-.626V99.45l4.489-.052c2.854 0 5.163-2.32 5.163-5.186 0-2.867-2.31-5.212-5.163-5.212h-5.137a.633.633 0 0 0-.623.625zm1.271-8.443v-7.896h4.489c2.153 0 3.918 1.772 3.918 3.935 0 2.163-1.765 3.935-3.918 3.96zM145.082 106.616c0 .339.285.626.623.626a.638.638 0 0 0 .648-.626V99.45l4.489-.052c2.854 0 5.163-2.32 5.163-5.186 0-2.867-2.31-5.212-5.163-5.212h-5.137a.633.633 0 0 0-.623.625zm1.271-8.443v-7.896h4.489c2.153 0 3.918 1.772 3.918 3.935 0 2.163-1.765 3.935-3.918 3.96zM164.93 106.616c0 .339.286.626.623.626a.616.616 0 0 0 .623-.626v-8.183l6.07-8.313c.208-.286.156-.703-.129-.886-.285-.234-.7-.182-.882.104l-5.708 7.845-5.682-7.845c-.182-.286-.597-.338-.882-.104-.26.183-.312.6-.13.886l6.097 8.366zM174.737 95.228c-.052.39.13.495.364.495.233 0 .337-.13.44-.469l1.48-5.238c.051-.234.13-.469.13-.625 0-.313-.182-.443-.416-.443h-.493c-.415 0-.648.208-.726.677zM180.497 105.417c1.038.834 2.647 1.799 4.696 1.825 1.246 0 2.283-.365 3.166-1.017.856-.651 1.453-1.511 1.453-2.58 0-1.068-.597-2.058-1.427-2.606a8.812 8.812 0 0 0-3.088-1.042h-.052c-1.167-.182-2.024-.495-2.594-.886-.493-.39-.727-.756-.727-1.277 0-.521.286-1.042.805-1.46.544-.442 1.375-.729 2.412-.729 1.246 0 2.18.652 3.114 1.277a.622.622 0 0 0 .856-.182.665.665 0 0 0-.182-.887c-.985-.625-2.153-1.38-3.788-1.38-1.297 0-2.36.338-3.113.86-.804.599-1.375 1.485-1.375 2.501 0 .99.57 1.824 1.375 2.293.726.522 1.738.782 2.88.99l.052.027c1.245.208 2.153.52 2.698.938.649.547.882.964.908 1.563 0 .574-.337 1.147-.96 1.564-.57.47-1.427.782-2.413.782-1.608 0-3.01-.834-3.891-1.486a.616.616 0 0 0-.883.079c-.207.26-.181.599.078.833z"/></g><path d="M97.827 207.286c-20.337-1.821-38.209-8.55-53.712-20.22-1.314-.99-2.45-1.957-2.523-2.15-.074-.194-.266-.353-.427-.354-.497-.003-2.738-2.082-2.559-2.374.093-.151.056-.204-.084-.118-.303.188-1.361-.505-1.361-.891 0-.149.161-.208.359-.132.504.195.692-.074.33-.472-.25-.274-.383-.265-.731.047-.382.342-.53.285-1.46-.558-.57-.517-1.103-1.15-1.184-1.406-.08-.257-.374-.526-.65-.6-.277-.072-.504-.323-.504-.556 0-.234.113-.355.25-.27.139.086.457.045.709-.09.357-.192.663-.055 1.409.631.524.482.839.877.7.877s-.252.123-.252.273c0 .15.205.239.456.196.45-.077 6.455 4.786 6.455 5.229 0 .118.153.215.34.215.187 0 1.137.614 2.112 1.364 3.696 2.844 9.45 6.387 14.57 8.97 2.56 1.29 3.578 1.776 6.62 3.154 4.852 2.197 14.424 4.94 21.538 6.172 6.435 1.114 8.84 1.295 17.15 1.29 10.28-.006 15.73-.664 24.83-2.996 12.393-3.176 22.713-8.007 33.533-15.695 2.914-2.07 3.705-2.436 3.193-1.475-.258.485-.24.5.245.196.307-.192.472-.5.396-.741-.158-.5 1.1-1.944 1.414-1.621.12.124.288.515.372.868.125.526-.002.748-.702 1.221-.47.319-.998.579-1.173.579-.176 0-.257.101-.181.225.126.206-1.113 1.197-4.588 3.672-3.331 2.372-14.648 8.701-15.559 8.701-.13 0-.173-.17-.094-.377.08-.208.029-.45-.112-.537-.385-.239-1.513.603-1.513 1.13 0 .532-.796.95-4.468 2.347-7.072 2.691-14.589 4.568-22.794 5.692-2.98.408-5.558.544-11.519.606-4.223.045-8.197.034-8.831-.022zm-29.31-7.553c.088-.142.037-.257-.112-.257a.265.265 0 0 0-.271.257c0 .141.05.257.113.257.062 0 .184-.116.27-.257zm75.924-.848c-.328-.33-.661-.075-.418.32.094.154.288.206.432.117.175-.108.17-.252-.014-.437zM35.37 178.65a.265.265 0 0 0-.271-.257c-.15 0-.2.115-.113.257.087.141.209.257.271.257.062 0 .113-.116.113-.257zm62.842 21.047c-2.375-.206-5-.54-6.527-.833a39.962 39.962 0 0 0-1.92-.284c-1.733-.217-4.595-.808-7.68-1.585-3.508-.884-11.134-3.428-11.134-3.714 0-.128-.234-.233-.52-.233-.286 0-.586-.173-.667-.384-.08-.212-.257-.316-.392-.233-.417.26-1.729-.423-1.577-.821.085-.222-.027-.362-.288-.362-.234 0-.355.116-.268.257.237.385.072.333-1.9-.599-.997-.471-1.73-.94-1.628-1.042.101-.102.013-.12-.197-.038-.21.08-.936-.206-1.612-.637l-1.23-.783.596-.49.595-.489-1.087.122c-1.021.115-1.088.084-1.088-.516 0-.782-.407-1.078-.907-.66-.206.17-.373.199-.373.063s-.283-.377-.628-.535c-.52-.238-.603-.223-.484.087.266.698-.563.386-2.87-1.08-1.879-1.195-5.215-3.551-6.383-4.508a171.37 171.37 0 0 0-1.602-1.26c-.74-.577-1.344-1.154-1.344-1.283 0-.13-.144-.237-.32-.238-.176-.001-1.587-1.16-3.136-2.575-1.974-1.803-2.823-2.752-2.84-3.173-.039-.9-.353-1.253-1.003-1.128-.456.088-.717-.1-1.186-.85-.331-.528-.683-.911-.781-.851-.336.205-5.497-6.185-8.846-10.953-1.393-1.983-4.649-7.513-6.059-10.292-5.162-10.173-8.161-20.133-9.793-32.524-.599-4.551-.593-16.872.011-21.34.23-1.697.478-3.548.552-4.114.786-5.983 2.87-13.716 5.576-20.697 2.397-6.184 8.615-17.489 9.614-17.48.268.003.317.073.136.193-.358.238-.28 1.475.093 1.475.153 0 .364.087.47.193.105.106 0 .193-.235.193-.727 0-.469.512.277.549.695.034.696.036.064.16-.514.101-.554.158-.203.287.387.142.346.306-.357 1.441-.934 1.506-3.301 5.812-4.34 7.896-1.046 2.095-3.951 9.398-4.721 11.866-.944 3.023-1.131 3.457-1.57 3.626-.216.083-.55.02-.741-.14-.267-.222-.386-.192-.508.128-.222.58.375 1.228.957 1.043.262-.084.476-.07.476.03 0 .632-1.095 3.71-1.32 3.71-.173 0-.212.326-.105.895.211 1.133-.258 2.96-.76 2.96-.506 0-.478.678.036.875.263.102.35.317.242.599-.348.912-.928 7.58-1.078 12.41-.417 13.378 2.396 27.798 7.747 39.715.76 1.692 1.382 3.283 1.382 3.535 0 .253.1.459.225.459.244 0 .959 1.55.86 1.864-.034.106.06.193.207.193.148 0 .467.434.71.964.243.53.746 1.438 1.118 2.018.372.58.893 1.447 1.158 1.928.265.481.851 1.447 1.302 2.146.811 1.26 1.032 1.848.59 1.574-.126-.079-.296.033-.378.247-.12.311-.053.339.325.136.592-.319 1.403.46 1.156 1.108-.115.301-.055.385.205.284.243-.094.75.407 1.492 1.476.619.89 1.343 1.848 1.609 2.131.266.283.927 1.11 1.47 1.84 1.752 2.355 9.485 9.942 13.036 12.79 1.9 1.524 3.434 2.857 3.406 2.962-.027.106.088.194.256.196.402.006 6.52 3.953 7.345 4.737.352.335.73.58.84.545.309-.099 1.72.696 1.72.968 0 .134.162.18.36.104.243-.094.415.117.532.653.096.436.285.723.421.638.153-.095.133-.292-.052-.516-.347-.42-.165-.467.47-.122 1.494.81 7.503 3.43 10.172 4.434 2.798 1.052 7.172 2.524 7.503 2.524.149 0 .595.134.991.299.397.164.804.28.905.26.1-.022 1.154.192 2.34.475 3.375.805 9.63 1.72 14.114 2.064 4.337.333 13.645.184 16.74-.267.93-.135 2.612-.373 3.739-.529a87.013 87.013 0 0 0 2.623-.393c.317-.06.836-.154 1.153-.208a21.03 21.03 0 0 0 1.583-.378c.726-.201 1.1-.201 1.343.002.226.189.337.193.337.012 0-.268 1.533-.889 1.954-.791.122.028.567-.093.99-.27.422-.177 1.705-.596 2.851-.932 1.146-.336 3.335-1.088 4.864-1.67 1.529-.584 2.895-1.09 3.036-1.127.14-.037.831-.324 1.535-.639s1.683-.745 2.176-.957c4.81-2.066 11.011-5.834 17.279-10.5 3.416-2.543 4.864-3.834 9.361-8.347 5.958-5.979 10.317-11.657 14.91-19.423.167-.28.499-.66.74-.842.24-.183.86-.734 1.379-1.225.926-.878.931-.893.295-.893-.486 0-.69.169-.816.673-.093.37-.232.609-.31.53-.185-.184.96-2.489 1.236-2.489.115 0 .21-.207.21-.461s.558-1.73 1.24-3.278c2.092-4.757 5.16-13.641 5.16-14.945 0-.188.18-.342.399-.342.22 0 .336-.102.258-.228-.077-.125.032-.37.241-.545.404-.337.467-.223.391.71-.034.428.091.578.484.578.292 0 .53-.16.53-.356 0-.196.23-.416.513-.49.346-.091.452-.039.326.162-.102.164-.152.507-.11.763.11.674-.454 1.285-.868.94-.228-.19-.377-.191-.493-.003-.091.148-.037.27.12.27.158 0 .203.135.102.3-.127.206-.042.246.27.125.403-.155.434-.065.276.792-.297 1.612-2.617 8.356-3.935 11.438-2.148 5.025-3.399 7.367-3.856 7.222-.309-.097-.327-.07-.074.112.263.19.16.562-.483 1.76-4.688 8.724-11.271 17.127-18.925 24.157-5.093 4.678-8.402 7.197-15.119 11.509-3.163 2.03-13.801 7.188-15.978 7.746-.14.036-.429.137-.64.224-1.633.675-6.091 2.063-7.9 2.46-.614.136-1.507.182-1.984.105-.581-.095-.867-.04-.867.166 0 .195.211.25.576.15.415-.114.468-.092.192.079-.211.13-.808.313-1.327.406-.75.135-.997.076-1.211-.288-.249-.423-.282-.414-.432.12-.17.607-.864.81-.878.257-.004-.189-.155-.126-.365.152-.251.332-.478.405-.763.245-.597-.336-2.184-.099-2.03.303.09.237-.632.441-2.642.746-5.866.888-14.456 1.157-20.43.64zm-8.32-2.68c0-.203-.114-.37-.255-.37-.141 0-.256.239-.256.53 0 .29.115.458.256.37.14-.087.256-.325.256-.53zm34.686-.113c-.087-.14-.274-.257-.415-.257-.14 0-.184.116-.097.257.087.142.273.258.414.258.14 0 .185-.116.098-.258zm-6.272-.257c.331-.214.324-.25-.049-.253-.238-.002-.504.112-.59.253-.201.326.138.326.64 0zm10.24-.577c0-.107-.177-.194-.393-.194-.215 0-.458-.173-.539-.384-.08-.211-.251-.32-.38-.24a.277.277 0 0 0-.089.38c.08.128.03.448-.11.71-.236.443-.191.457.628.2.485-.153.882-.365.882-.472zm-47.01-1.094c.093.069.055-.012-.086-.18a1.228 1.228 0 0 0-.656-.362c-.296-.044-.33.026-.133.265.148.179.183.426.078.55-.104.123-.006.085.218-.086.224-.171.484-.255.578-.187zm53.409-1.399c0-.303-.5-.628-.683-.443-.183.184.14.685.442.685.132 0 .24-.109.24-.242zm-74.745-7.842c0-.062-.116-.184-.256-.272-.141-.087-.256-.036-.256.114s.115.272.256.272c.14 0 .256-.051.256-.114zm-.768-.4a.257.257 0 0 0-.256-.257.257.257 0 0 0 0 .514c.14 0 .256-.116.256-.257zm-3.473-1.827c-.223-.363-.623-.268-.623.147 0 .23.15.32.383.23.21-.08.318-.25.24-.377zm109.85-7.624c-.26-.261-.73.385-.525.72.141.229.258.196.437-.126.134-.24.174-.508.088-.594zM39.465 169.68c0-.125-.23-.288-.512-.362-.555-.145-.716.207-.192.419.504.204.704.188.704-.057zm149.49-23.427c0-.141-.051-.257-.113-.257-.062 0-.184.116-.271.257-.087.142-.037.257.112.257.15 0 .272-.115.272-.257zM13.739 86.605c-.087-.141-.267-.257-.4-.257-.132 0-.24.116-.24.257 0 .142.18.257.4.257.219 0 .327-.115.24-.257zm1.408-2.753c.679-.179.649-.492-.064-.684-.826-.222-1.013-.198-.825.106.09.148.027.436-.142.64a.9.9 0 0 0-.124.824c.161.4.209.384.413-.15.127-.33.461-.663.742-.736zM169.5 183.01c0-.147 2.144-2.374 4.764-4.95 2.62-2.574 5.92-6.04 7.331-7.702 1.412-1.661 2.644-3.02 2.737-3.02.092 0 .3.131.461.293.22.221.254.14.135-.321-.135-.527-.102-.57.23-.297.213.176.464.244.556.15.093-.093.169.01.169.228 0 .498-.617 1.034-.896.78-.116-.105-.131.028-.035.296.105.293.023.651-.207.9-.21.227-1.097 1.28-1.97 2.34-2.16 2.623-10.38 10.8-10.858 10.8-.212 0-.452.176-.535.392-.118.308-.228.327-.515.088-.276-.23-.436-.232-.66-.006-.37.37-.707.384-.707.03zm-137.67-6.755c-.306-.327-.557-.704-.557-.838s-.23-.387-.512-.564c-.684-.43-.643-.897.112-1.248.663-.309.522-.416 2.792 2.124.737.825.558 1.476-.198.717-.223-.225-.55-.35-.724-.28-.252.102-.251.134.002.15.176.01.32.136.32.277 0 .455-.663.274-1.235-.338zm-3.927-4.365c-2.452-2.805-3.541-4.326-3.541-4.946 0-.663-.407-1.08-.571-.586-.057.171-.573-.32-1.147-1.09-1.655-2.222-3.897-5.832-3.727-6.003.085-.085.029-.155-.125-.155-.606 0-4.53-7.136-6.928-12.599-3.218-7.331-5.126-13.418-6.81-21.725-1.524-7.523-1.801-10.558-1.806-19.797-.004-8.377.141-10.461 1.176-16.841 1.675-10.331 5.538-21.882 10.404-31.11 2.86-5.422 8.271-13.626 11.03-16.72 1.121-1.257 1.238-1.323 1.63-.93.231.233.543.424.691.424.148 0-.491.954-1.421 2.12-8.59 10.772-14.682 22.948-18.689 37.346-.354 1.272-.68 2.545-.725 2.828-.045.283-.314 1.729-.599 3.214-2.999 15.634-2.41 31.307 1.75 46.536 1.522 5.571 4.072 12.306 6.542 17.277 1.557 3.133 5.217 9.7 5.99 10.748 1.897 2.572 5.639 8.038 5.639 8.239 0 .135.108.246.24.246.197 0 1.266 1.206 3.363 3.795.305.378.14.729-.51 1.078-.381.205-.703-.029-1.856-1.349zm157.476-5.453c0-.141.111-.43.248-.643.136-.212.248-.27.248-.128 0 .141-.112.43-.248.643-.137.212-.248.27-.248.128zm5.538-6.47a.71.71 0 0 1-.17-.437c0-.161.119-.146.302.038.167.168.244.364.17.437-.072.073-.208.056-.302-.038zm.427-.986c0-.212.15-.386.333-.386.191 0 .27.165.186.386-.081.212-.231.386-.333.386-.103 0-.186-.174-.186-.386zm1.706-3.054c0-.194.202-.507.448-.694.371-.282.397-.282.148 0-.165.187-.239.5-.164.694.074.195.007.354-.148.354-.156 0-.284-.159-.284-.354zm-.768-.771c0-.053.154-.225.342-.382.258-.215.34-.191.34.098 0 .21-.153.381-.34.381-.188 0-.342-.044-.342-.097zm1.028-1.43c.012-.435.511-.84.866-.704.554.214.523-.25-.038-.567-.426-.24-.426-.261-.001-.425.245-.095.37-.296.278-.447-.106-.172-.01-.213.257-.11.235.09.426.062.426-.063s-.13-.272-.29-.325c-.192-.064-.153-.235.116-.505.223-.224.343-.471.266-.548-.077-.077.267-.93.764-1.895 1.11-2.154 3.93-9.34 5.018-12.784 2.894-9.16 4.317-17.864 4.544-27.795.169-7.412-.1-11.911-1.094-18.326-1.858-11.993-6.455-25.094-12.228-34.85-.655-1.108-1.191-2.048-1.191-2.088 0-.092-2.718-4.163-4.684-7.017-.803-1.165-1.46-2.242-1.46-2.393 0-.151-.11-.206-.243-.123-.134.083-.382-.113-.553-.435-.567-1.073-5.593-6.64-8.61-9.539-1.713-1.644-1.895-1.974-1.089-1.974.282 0 .512-.116.512-.257 0-.315-.516-.328-.991-.026-.393.25-.686.051-2.775-1.882-.937-.867-1.285-1.349-1.105-1.53.145-.145.264-.473.264-.727 0-.255.07-.463.155-.463.208 0 1.506 1.093 2.916 2.455 1.88 1.815 2.39 2.43 2.018 2.43-.188 0-.092.175.215.39.305.215.655.36.778.322.222-.069 6.46 6.194 6.46 6.485 0 .084.518.726 1.151 1.427.633.701 1.152 1.477 1.152 1.725 0 .247.17.45.376.45s.512.26.678.578c.167.318.387.636.488.707.348.244 3.496 4.762 5.105 7.328 3.219 5.134 8.412 15.567 8.53 17.135.02.262.108.477.197.477.127 0 .776 1.726.87 2.314.01.07.089.244.173.385.33.552 1.785 5.312 2.633 8.613a111.43 111.43 0 0 1 2.63 13.884c.655 5.292.652 18.648-.006 23.783-1.174 9.155-3.299 17.567-6.494 25.71-1.384 3.527-4.31 9.823-5 10.757-.312.422-1.993.797-1.983.442zm-9.475-113.513c0-.272-.491-.386-.637-.148-.089.143.018.261.238.261s.399-.051.399-.113zm-6.4-7.5c0-.212-.496-.332-.61-.147-.074.12.033.218.238.218s.373-.032.373-.07zm-1.023-.63c0-.133-.115-.242-.256-.242-.141 0-.256.18-.256.401 0 .22.115.33.256.242.14-.087.256-.268.256-.4zm20.286 93.852c-.317-.128-.75-.166-.96-.085-.412.159-.478-.173-.223-1.128.098-.367.355-.582.7-.587.488-.007.502-.043.132-.325-.477-.365-.47-.493.256-5.323 1.38-9.165 1.423-18.095.136-27.382-.47-3.39-.545-3.856-.714-4.438a13.348 13.348 0 0 1-.26-1.347c-.073-.495-.421-2-.774-3.343-.774-2.952-.966-3.813-1.01-4.539-.02-.304-.116-.503-.214-.442-.1.061-.322-.384-.495-.989-1.514-5.286-5.906-14.864-9.239-20.147-.711-1.128-.943-2.098-.623-2.614.143-.23-.02-.322-.575-.322-.495 0-.866-.174-1.031-.483-.142-.265-1.52-2.168-3.062-4.227-1.543-2.059-2.68-3.786-2.527-3.837.199-.066.196-.237-.01-.594-.215-.371-.296-.4-.316-.115-.017.263-.096.222-.245-.128l-.22-.514-.02.514c-.016.449-.097.416-.633-.257-.44-.552-.53-.833-.319-.989.193-.141.153-.171-.115-.086-.278.088-1.414-.89-3.504-3.016-1.702-1.731-3.466-3.436-3.922-3.789-.9-.697-.897-1.444.007-1.681a.955.955 0 0 0 .615-.619c.133-.513.687-.689.687-.218 0 .15.11.205.243.122.333-.207 5.932 5.28 8.911 8.733 3.173 3.677 6.02 7.519 5.816 7.85-.089.144-.017.23.159.191.176-.039.93.913 1.677 2.115.746 1.202 1.446 2.307 1.555 2.456 1.554 2.132 3.22 5.911 2.373 5.386-.14-.088-.253-.066-.25.049.003.114.454.54 1 .946.803.596 1.258 1.318 2.35 3.728 1.994 4.395 3.543 8.605 3.274 8.89-.343.364-.279.656.143.656.906 0 3.644 11.264 4.657 19.155.575 4.482.66 17.26.14 21.468-.424 3.444-1.006 7.073-1.32 8.228a21.03 21.03 0 0 0-.395 1.864c-.094.602-.29.964-.523.964-.205 0-.372.115-.372.257 0 .305-.189.303-.96-.007zm1.472-.764a.257.257 0 0 0-.256-.257.257.257 0 0 0 0 .515c.14 0 .256-.116.256-.258zm-.512-2.586c0-.15-.115-.2-.256-.113-.141.087-.256.017-.256-.156 0-.174-.07-.246-.154-.161-.196.197.109.703.425.703.132 0 .24-.123.24-.273zM185.37 54.981a.257.257 0 0 0-.256-.257.257.257 0 0 0 0 .514c.14 0 .256-.115.256-.257zm-.128-2.057c.087-.141-.086-.257-.384-.257-.298 0-.471.116-.384.257.087.142.26.257.384.257s.297-.115.384-.257zm-17.79-18.769c0-.141-.051-.257-.113-.257-.062 0-.184.116-.271.257-.087.142-.037.258.112.258.15 0 .272-.116.272-.258zM27.539 50.486c.069-.382.596-1.322 1.172-2.088.918-1.221 1.132-1.374 1.74-1.245.581.123.621.1.246-.139-.246-.157-.448-.385-.448-.506 0-.266 3.509-4.6 4.951-6.115.713-.749 1.098-.992 1.23-.779.233.38.437.206.541-.46.098-.626.978-1.674 1.26-1.5.373.233.223.552-.328.696-.296.078-.462.265-.369.416.219.356 1.163.357 1.163.002 0-.15.115-.2.256-.113.14.087.256-.021.256-.242 0-.22.122-.4.27-.4.15 0 .207-.106.128-.234-.078-.128-.373-.172-.655-.098-.384.1-.511.007-.511-.376 0-.456 3.482-3.853 5.791-5.65a35.828 35.828 0 0 0 1.632-1.382c6.818-6.159 19.81-13.276 30.626-16.777 8.755-2.833 17.134-4.225 26.88-4.464 8.284-.203 14.4.351 22.202 2.01 5.253 1.118 14.367 3.96 15.898 4.96.282.184.965.484 1.517.666 1.788.589 3.74 1.58 3.591 1.824-.08.13-.478.237-.884.237-.419 0-.883.202-1.073.466-.184.256-.458.54-.608.63-.151.09-1.533-.304-3.072-.874-7.793-2.89-12.494-4.264-18.796-5.493-1.9-.37-3.495-.783-3.542-.917-.047-.133-.191-.177-.32-.097-.128.08-.234.02-.234-.132 0-.174-.261-.212-.7-.101-.384.097-.816.155-.96.13-.576-.103-6.43-.244-11.042-.265-12.956-.06-26.286 2.867-38.365 8.425-4.279 1.969-4.357 1.993-4.686 1.465-.32-.513-.329-.507-.195.14.13.627-.044.786-2.353 2.158-10.328 6.138-18.192 12.913-25.9 22.313-1.371 1.673-1.742 1.984-2.223 1.863-.317-.08-.648-.03-.735.113-.087.142.04.258.283.258.636 0 .287.257-.558.41-.397.073-.878.357-1.07.632-.192.275-.564.5-.828.5-.263 0-.664.187-.891.415-.38.38-.403.358-.287-.282zm1.35-.952c-.082-.205-.143-.144-.155.155-.011.271.05.423.134.337.085-.085.094-.307.02-.492zm2.984-3.241c-.081-.312-.336-.566-.566-.564-.257.003-.312.077-.143.193.151.104.355.408.454.676.24.651.442.41.255-.305zm5.975-6.53c-.082-.205-.143-.144-.155.156-.011.271.05.423.134.337.085-.085.094-.307.02-.492zm25.79-19.004c-.07-.114-.297-.143-.504-.063a.578.578 0 0 0-.19.961c.226.228.872-.608.694-.898zm78.392-3.878c-.082-.205-.143-.144-.155.155-.01.271.05.423.135.338.085-.086.094-.307.02-.493zM27.81 39.285c-.244-.396.09-.65.418-.32.184.184.188.328.014.436-.144.09-.338.037-.432-.116zm.264-1.273c-.087-.141-.037-.257.112-.257.15 0 .272.116.272.257 0 .141-.051.257-.113.257-.062 0-.184-.116-.271-.257zm1.97-1.686c.022-.62.223-1.064.623-1.38.324-.256.534-.52.468-.587-.121-.122 2.558-2.767 6.415-6.335 2.838-2.624 7.865-6.405 7.996-6.012.12.365.83.434.83.08 0-.129-.144-.303-.32-.386-.176-.084.011-.087.416-.01.583.114.706.064.59-.242-.096-.249-.029-.34.189-.255.197.076.564-.257.883-.8.332-.565.662-.857.841-.746.182.113.226.07.115-.11-.211-.344 3.094-2.556 6.294-4.215 1.167-.604 2.18-1.172 2.252-1.262.571-.712 12.383-5.765 15.195-6.5.775-.203 1.62-.478 1.876-.611.58-.301 3.204-.951 3.5-.868.121.034.355-.051.52-.19.166-.137.586-.308.934-.38.347-.07 1.035-.25 1.528-.401 1.737-.53 7.34-1.582 11.135-2.092 5.04-.677 15.474-.936 20.734-.515 15.021 1.201 29.965 5.778 42.524 13.024 3.389 1.955 7.519 4.674 7.519 4.95 0 .122-.222.424-.493.67-.47.428-.542.419-1.6-.22-1.314-.792-1.745-1.136-2.259-1.803-.346-.449-.342-.482.039-.339.302.114.399.036.34-.273a10.052 10.052 0 0 1-.103-.625c-.034-.33-1.762-.211-1.887.129-.085.233-.426.15-1.237-.302-9.352-5.21-17.21-8.405-26.275-10.687-12.962-3.264-27.698-3.867-40.673-1.667-10.392 1.763-18.448 4.357-28.217 9.086-1.042.504-2.021.844-2.176.756-.155-.089-.199-.07-.098.042.276.308-6.785 4.278-7.08 3.982-.135-.136-.424-.238-.642-.228-.294.013-.273.067.083.207.45.178.453.216.046.625-.239.24-.606.435-.816.435-.21 0-.68.356-1.045.791-.42.502-.829.748-1.116.672-.33-.086-.412-.009-.3.282.112.296.04.358-.276.236-.271-.104-.428-.036-.428.186 0 .31-2.22 1.947-2.638 1.947-.09 0-.097-.202-.018-.45.114-.356.091-.374-.112-.087-.141.199-.204.499-.14.665.063.167-1.013 1.214-2.392 2.326-1.38 1.112-3.775 3.26-5.323 4.772-1.549 1.512-3.22 3.08-3.712 3.483-.493.403-.936.826-.986.94-.05.116-.338.001-.64-.253-.302-.255-.464-.36-.36-.233.105.127.063.385-.092.573-.156.188-.216.517-.134.73.081.214.04.39-.092.39s-.225-.412-.206-.915zm1.997-1.286c0-.22-.117-.328-.26-.24-.143.09-.194.27-.113.402.22.356.373.29.373-.162zm43.26-27.11a.265.265 0 0 0-.27-.257c-.15 0-.2.116-.114.257.087.142.21.258.271.258.062 0 .113-.116.113-.258zm91.505 24.414c-.084-.135.086-.245.375-.245.619 0 .68.143.152.347-.207.08-.444.034-.527-.102zm-3.45-1.265c0-.146-.172-.266-.383-.266-.211 0-.384-.122-.384-.272 0-.15.115-.201.256-.114.362.225.32-.476-.051-.848-.42-.421-.803-.39-.634.052.21.547-.436 1.302-.877 1.025-1.477-.926-3.017-2.252-2.878-2.478.098-.16.046-.197-.128-.09-.162.102-.295.062-.295-.088s-.174-.272-.387-.272c-.36 0-4.638-2.51-5.5-3.226-.212-.175-1.683-.99-3.27-1.81-1.586-.82-2.845-1.612-2.796-1.762.049-.15.51-.38 1.026-.51.515-.13 1-.437 1.077-.68.098-.31.311-.4.707-.3 1.666.424 11.294 6.37 11.024 6.808-.066.107.08.194.326.194.245 0 1.308.666 2.362 1.479 1.054.813 2.092 1.609 2.307 1.768.342.255.344.336.015.666-.585.588-1.516 1.033-1.516.724zm-3.48-3.355c.293-.005-.355-.5-.662-.507-.096-.002-.164.37-.15.826.02.769.041.788.277.258.14-.315.38-.575.535-.577zm-1.255-1.56c0-.2-.259-.402-.576-.447-.621-.088-.832.58-.256.81.485.195.832.043.832-.363zm11.093-.429c-.047-.106-.433-.437-.858-.735-.589-.413-.919-.487-1.387-.313-.777.288-1.26-.112-.803-.665.175-.212.243-.535.15-.718-.093-.183.012-.108.234.166.221.275.568.524.77.554.478.07 2.192 1.382 2.192 1.677 0 .277-.182.298-.298.034zm-25.012-5.181c-.194-.124-.275-.351-.18-.505.183-.299 1.173.159 1.173.542 0 .261-.556.24-.993-.037zm2.402-1.822c-.09-.146.013-.189.241-.101.444.17.525.355.157.355-.133 0-.312-.114-.398-.254z" fill="#333"/><g fill="none" stroke="#000" stroke-linecap="round"><path d="M480.559-398.64l-3.965 1.86c-4.054 1.9-9.872 4.624-10.7 4.987-.2-2.696.773-5.76 2.23-7.754 1.458-1.994 3.294-3.41 5.469-4.49 2.175-1.079 5.182-1.851 7.793-1.39 3.652.645 6.947 2.69 6.947 2.69s-.047 3.912-2.152 7.67c-1.09 1.945-2.922 3.801-5.177 5.155-2.009 1.205-5.02 1.929-8.135 1.882-5.328-.08-10.786-1.683-10.786-1.683l-8.693 4.576" stroke-width="1.29" transform="matrix(1.26873 0 0 1.27434 -495.445 555.777)"/><path d="M477.643-401.872c-2.169 4.078-2.303 4.393-2.303 4.393M472.22-399.324c-2.169 4.078-2.303 4.393-2.303 4.393M474.959-400.696c-2.17 4.079-2.304 4.394-2.304 4.394M480.303-402.755c-2.065 3.647-2.193 3.929-2.193 3.929" stroke-width=".666" transform="matrix(1.26873 0 0 1.27434 -495.445 555.777)"/></g></svg>
