<?xml version="1.0" encoding="UTF-8" standalone="no"?>
<svg
   xmlns:dc="http://purl.org/dc/elements/1.1/"
   xmlns:cc="http://creativecommons.org/ns#"
   xmlns:rdf="http://www.w3.org/1999/02/22-rdf-syntax-ns#"
   xmlns:svg="http://www.w3.org/2000/svg"
   xmlns="http://www.w3.org/2000/svg"
   width="93"
   height="93"
   viewBox="0 0 93 93"
   fill="none"
   stroke="currentColor"
   version="1.1"
   id="svg4">
  <metadata
     id="metadata10">
    <rdf:RDF>
      <cc:Work
         rdf:about="">
        <dc:format>image/svg+xml</dc:format>
        <dc:type
           rdf:resource="http://purl.org/dc/dcmitype/StillImage" />
        <dc:title></dc:title>
      </cc:Work>
    </rdf:RDF>
  </metadata>
  <defs
     id="defs8" />
  <path
     d="m 38.7569,63.274506 c 5.041,0.4209 11.9186,1.914 16.5002,1.914 8,0 13.4999,-4.5001 7.9999,-16.5 -5.5,-12 -24.0001,-29.0001 -30.00008,-35.5002 C 27.256927,6.6883055 28.7569,4.2409055 28.75691,0.24090551 M 38.7569,63.274506 c -3.76117,-0.314 -6.49997,-0.0312 -6.49997,1.914 v 5.9998 m 6.49997,-7.9138 c 8.8039,-14.8563 21.6185,-4.2171 20.5,0.4664 m -13.5,28.5 c 2.3133,-3.5624 1.96,-8.7471 0,-11.5 -2.634,-4.1232 -0.2362,-8.5755 2.5,-11.5 m 4,23 c 2.3133,-3.5624 1.96,-8.7471 0,-11.5 -2.634,-4.1232 1.2638,-8.5755 4,-11.5"
     stroke="currentColor"
     stroke-width="3"
     id="path2" />
</svg>
