<svg  viewBox="0 0 95 86" fill="none" xmlns="http://www.w3.org/2000/svg">
<path d="M68.2757 10.2C61.5 5.41692 52.3789 2 43.4223 2C20.5454 2 2 20.3563 2 43C2 65.6437 20.5454 84 43.4223 84C66.2993 84 84.8447 65.6437 84.8447 43C84.8447 39.015 83.8449 33.9328 82.7736 30.29M14.0125 24.14C33.0668 37.26 37.9351 48.2525 43.8366 68.42C49.0882 50.4734 57.2496 37.3323 71.5895 25.9521M77.3887 21.68L79.4598 13.07M77.3887 21.68H85.6731M77.3887 21.68C75.2904 23.1248 73.3641 24.5438 71.5895 25.9521M71.5895 25.9521V17.17M71.5895 25.9521H79.4598M62.6313 33.3469C73.5921 33.5219 82.5069 31.6343 88.7698 25.8197C95.0326 20.0051 93.5443 12.763 89.4526 8.44531C85.3609 4.12757 78.1544 2.19449 71.8915 8.00908C65.6287 13.8237 63.1556 22.5088 62.6313 33.3469Z" stroke="currentColor" stroke-width="3"/>
</svg>
